<svg width="86" height="105" viewBox="0 0 86 105" fill="none" xmlns="http://www.w3.org/2000/svg">
<g clip-path="url(#clip0_0_677)">
<path d="M73.3749 33.3764L72.1697 34.4766L66.0315 29.3433L65.2737 28.7086C65.5342 27.6179 65.7297 26.5126 65.8593 25.3986V25.3986C66.0778 23.4001 65.8348 22.6684 65.8348 22.6684C65.8348 22.6684 61.6384 14.6411 53.6002 12.613C45.5621 10.5849 38.0658 15.6619 38.0658 15.6619C38.0658 15.6619 37.5054 16.1909 36.7515 18.0543C36.3356 19.0958 35.9844 20.1619 35.6997 21.2467L26.8914 23.0522L26.3511 21.5117L34.0245 19.7524C34.8207 16.5905 35.779 14.879 36.2056 14.274C36.264 14.1822 36.3284 14.0944 36.3984 14.0111C37.9962 12.5666 40.8178 11.3094 44.0414 10.613C47.2049 9.89387 50.4845 9.85242 53.6651 10.4913L54.0816 10.5964C60.4784 12.2104 66.5882 17.9383 68.0339 21.9985C68.0339 21.9985 68.4615 24.0913 67.4068 28.1752L73.3254 33.3639L73.3749 33.3764Z" fill="white"/>
<path d="M72.1076 34.7248C72.0715 34.7229 72.0361 34.714 72.0034 34.6985L65.1037 28.9244C65.0693 28.8939 65.0433 28.8549 65.0284 28.8114C65.0135 28.7678 65.0101 28.7211 65.0186 28.6759C65.2806 27.596 65.4753 26.5009 65.6017 25.3969V25.3969C65.7423 24.5357 65.7389 23.6571 65.5918 22.7971C65.3397 22.3322 61.1621 14.8165 53.5504 12.896C45.9387 10.9755 38.6951 15.6147 38.2592 15.9007C37.7232 16.5887 37.3043 17.3606 37.0194 18.1852V18.1852C36.6127 19.219 36.2657 20.2754 35.9802 21.3491C35.9682 21.394 35.9438 21.4347 35.9097 21.4662C35.8756 21.4978 35.8332 21.5191 35.7876 21.5275L26.9829 23.3392C26.923 23.3504 26.8611 23.3402 26.8079 23.3103C26.7547 23.2805 26.7136 23.233 26.6918 23.176L26.1528 21.6305C26.1388 21.5874 26.1372 21.5413 26.1483 21.4974C26.1594 21.4535 26.1826 21.4136 26.2153 21.3823C26.2531 21.3393 26.3051 21.3112 26.3618 21.3031L33.8788 19.5572C34.2945 17.6438 35.0298 15.8143 36.0536 14.1458C36.1793 13.9611 36.2551 13.8694 36.2626 13.8607C36.2636 13.8504 36.2661 13.8404 36.2701 13.8309C37.9151 12.3455 40.7429 11.0846 44.0273 10.3771C47.2269 9.64779 50.5448 9.60683 53.7614 10.2569L54.1779 10.362C60.664 11.9985 66.8245 17.7762 68.3122 21.9208L68.3047 21.9506C68.3244 22.0401 68.7235 24.0993 67.7112 28.0988L73.5034 33.2029C73.5482 33.238 73.5804 33.2869 73.5949 33.3421C73.6071 33.3853 73.6078 33.431 73.5968 33.4746C73.5859 33.5182 73.5636 33.5581 73.5324 33.5903L72.3259 34.6954C72.2942 34.7166 72.258 34.7303 72.2201 34.7354C72.1823 34.7405 72.1438 34.7369 72.1076 34.7248ZM26.7281 21.6912L27.1031 22.7572L35.5268 21.0552C35.8086 20.0157 36.1489 18.9929 36.546 17.9918V17.9918C37.3187 16.0751 37.899 15.53 37.9263 15.5052L37.9338 15.4754C38.0108 15.421 45.6137 10.3603 53.6518 12.3884C61.69 14.4165 65.9819 22.4837 66.0251 22.5633L66.0424 22.5993C66.0349 22.6291 66.3026 23.4093 66.0803 25.4437C65.9572 26.512 65.7713 27.5721 65.5235 28.6185L72.1372 34.1463L72.9722 33.3856L67.2617 28.355C67.2279 28.3237 67.2033 28.2838 67.1903 28.2397C67.1772 28.1955 67.1764 28.1486 67.1877 28.104C68.1725 24.2981 67.8502 22.2477 67.8159 22.049C66.3701 17.9888 60.3617 12.4238 54.0455 10.8248L53.6389 10.7222C50.4928 10.083 47.2467 10.1224 44.117 10.8379C40.9715 11.5171 38.1648 12.7569 36.5981 14.1618C36.5906 14.1916 36.5197 14.2634 36.4339 14.3949C36.0471 14.9677 35.0603 16.6456 34.2889 19.7927C34.2783 19.8382 34.2548 19.8798 34.2214 19.9126C34.1879 19.9453 34.1458 19.9677 34.1 19.9773L26.7281 21.6912Z" fill="#5A5A5C"/>
<path d="M29.9266 20.1332C31.0028 20.4048 32.0953 19.7515 32.3666 18.6742C32.6378 17.5968 31.9853 16.5033 30.909 16.2317C29.8327 15.9601 28.7403 16.6134 28.469 17.6907C28.1977 18.7681 28.8503 19.8616 29.9266 20.1332Z" fill="white"/>
<path d="M29.8437 20.4608C29.3936 20.3473 28.9872 20.1026 28.6759 19.7578C28.3646 19.413 28.1625 18.9836 28.0951 18.5238C28.0276 18.064 28.0979 17.5945 28.297 17.1747C28.4961 16.7549 28.8151 16.4037 29.2137 16.1654C29.6122 15.927 30.0724 15.8124 30.5361 15.8359C30.9997 15.8593 31.446 16.0199 31.8185 16.2973C32.191 16.5747 32.4729 16.9564 32.6286 17.3942C32.7844 17.832 32.807 18.3061 32.6935 18.7568C32.5401 19.3603 32.1542 19.8784 31.6201 20.1978C31.086 20.5172 30.4473 20.6117 29.8437 20.4608V20.4608ZM30.8274 16.5544C30.5057 16.4732 30.1672 16.4893 29.8547 16.6008C29.5422 16.7122 29.2697 16.9138 29.0717 17.1803C28.8736 17.4467 28.759 17.766 28.7422 18.0976C28.7255 18.4293 28.8073 18.7585 28.9775 19.0435C29.1476 19.3286 29.3984 19.5568 29.698 19.6992C29.9977 19.8417 30.3329 19.8919 30.6611 19.8437C30.9893 19.7955 31.2959 19.6509 31.542 19.4282C31.7882 19.2056 31.9628 18.9149 32.0439 18.5929C32.1526 18.1611 32.0856 17.7037 31.8574 17.3214C31.6293 16.9391 31.2588 16.6632 30.8274 16.5544V16.5544Z" fill="#5A5A5C"/>
<path d="M29.7167 16.6488C29.8407 16.6042 29.9731 16.5879 30.1042 16.6011C30.2354 16.6142 30.3619 16.6566 30.4745 16.725C30.5872 16.7934 30.6832 16.8861 30.7555 16.9964C30.8278 17.1067 30.8745 17.2318 30.8924 17.3624C31.0659 18.0767 29.3206 18.7872 29.3206 18.7872C29.3206 18.7872 30.4561 19.7441 31.4835 18.8894C32.5109 18.0348 31.695 16.6253 31.695 16.6253C31.695 16.6253 30.7774 15.8922 29.9172 16.2295C29.057 16.5668 29.7167 16.6488 29.7167 16.6488Z" fill="#5A5A5C"/>
<path d="M71.2596 31.0954C72.3359 31.3669 73.4283 30.7137 73.6996 29.6363C73.9709 28.5589 73.3183 27.4654 72.242 27.1939C71.1657 26.9223 70.0733 27.5755 69.802 28.6529C69.5307 29.7303 70.1833 30.8238 71.2596 31.0954Z" fill="white"/>
<path d="M71.1777 31.4232C70.7278 31.3097 70.3215 31.0652 70.0103 30.7207C69.6991 30.3761 69.4969 29.947 69.4293 29.4875C69.3616 29.0279 69.4315 28.5586 69.6302 28.1389C69.8289 27.7191 70.1474 27.3677 70.5455 27.1291C70.9436 26.8904 71.4034 26.7753 71.8669 26.7981C72.3303 26.8209 72.7766 26.9808 73.1494 27.2574C73.5221 27.5341 73.8046 27.9151 73.9611 28.3524C74.1177 28.7896 74.1412 29.2635 74.0288 29.7142C73.8765 30.3189 73.4908 30.8385 72.9563 31.1589C72.4218 31.4793 71.7822 31.5743 71.1777 31.4232V31.4232ZM72.1614 27.5168C71.8395 27.4355 71.5008 27.4518 71.1881 27.5634C70.8754 27.675 70.6028 27.877 70.4049 28.1437C70.207 28.4105 70.0925 28.73 70.0761 29.0619C70.0597 29.3938 70.1421 29.7231 70.3128 30.0081C70.4834 30.2932 70.7348 30.5211 71.0349 30.663C71.3351 30.805 71.6706 30.8546 71.9989 30.8055C72.3272 30.7565 72.6336 30.6111 72.8793 30.3876C73.125 30.1642 73.299 29.8728 73.3791 29.5503C73.4849 29.1191 73.4164 28.6635 73.1883 28.2827C72.9602 27.9019 72.5912 27.6266 72.1614 27.5168V27.5168Z" fill="#5A5A5C"/>
<path d="M71.0508 27.6115C71.1751 27.5671 71.3078 27.5511 71.439 27.5647C71.5703 27.5782 71.6969 27.6211 71.8095 27.69C71.9221 27.7589 72.0179 27.8521 72.0898 27.9629C72.1617 28.0737 72.208 28.1991 72.2252 28.3301C72.3987 29.0443 70.6547 29.7499 70.6547 29.7499C70.6547 29.7499 71.7902 30.7068 72.8213 29.8584C73.8524 29.0099 73.0328 27.5942 73.0328 27.5942C73.0328 27.5942 72.1165 26.8351 71.2513 27.1922C70.3861 27.5493 71.0508 27.6115 71.0508 27.6115Z" fill="#5A5A5C"/>
<path d="M37.4037 15.4471C37.3955 15.3951 37.3733 15.3462 37.3396 15.3057C37.3058 15.2652 37.2617 15.2347 37.212 15.2173C37.1623 15.1998 37.1089 15.1962 37.0573 15.2068C37.0057 15.2174 36.9579 15.2418 36.919 15.2773C36.0876 16.1709 35.6019 19.7332 34.8825 20.391C34.0724 21.1369 26.6522 21.5136 26.4165 21.528L26.9568 23.0686L35.7652 21.2631C36.0498 20.1783 36.4011 19.1121 36.8169 18.0706C37.1453 17.2313 37.3432 16.3465 37.4037 15.4471V15.4471ZM35.9005 20.5581C35.7098 21.001 35.4314 21.3108 35.2753 21.2398C35.1191 21.1687 35.1435 20.7578 35.3292 20.3137C35.5148 19.8696 35.7982 19.561 35.9556 19.6271C36.113 19.6932 36.0874 20.109 35.9005 20.5581V20.5581Z" fill="#5A5A5C"/>
<path d="M37.4168 14.6379C37.2918 15.1342 39.8581 14.4514 41.2282 14.0158C42.3746 13.518 43.5581 13.1106 44.7679 12.7972C46.5432 12.3897 48.3568 12.1731 50.178 12.151C50.178 12.151 50.7304 11.9261 50.3298 11.9042C48.5906 11.8207 46.8476 11.8734 45.1166 12.0617C42.4518 12.4029 37.5606 14.0459 37.4168 14.6379Z" fill="#5A5A5C"/>
<path d="M68.0905 21.9814C67.3676 19.9513 65.4735 17.5042 62.9698 15.3627C60.5234 13.2275 57.6535 11.6344 54.5485 10.6881L53.7155 10.4779C50.5349 9.83899 47.2553 9.88044 44.0918 10.5995C40.8682 11.296 38.0465 12.5532 36.4487 13.9977C36.3788 14.081 36.3144 14.1688 36.256 14.2605L36.3957 14.5017C37.0135 13.7654 45.9197 9.45589 53.4917 11.3664L54.3248 11.5766C61.8968 13.4871 67.7032 21.5088 67.8986 22.4503L68.1358 22.3042C68.1114 22.0869 68.0905 21.9814 68.0905 21.9814Z" fill="#5A5A5C"/>
<path d="M69.6751 31.7356C68.5496 30.892 67.5106 29.9384 66.5737 28.8889C66.5152 28.8099 66.4745 28.7191 66.4541 28.6229C66.4337 28.5267 66.4343 28.4272 66.4557 28.3312C66.8015 26.6802 67.0154 25.0042 67.0955 23.3191C67.0993 23.1623 67.0682 23.0066 67.0046 22.8633C65.7105 19.9818 63.6351 17.5213 61.0141 15.7612C56.6735 12.9767 53.6831 12.37 53.6831 12.37L53.6218 12.6133C61.6401 14.6364 65.8565 22.6686 65.8565 22.6686C65.8565 22.6686 66.0994 23.4004 65.8809 25.3988C65.7513 26.5128 65.5558 27.6181 65.2953 28.7089L65.4538 28.8334C65.4403 28.4566 65.4681 28.0794 65.5366 27.7087C65.6771 26.8995 66.0503 25.6686 66.2276 25.6975C66.4049 25.7264 66.398 26.7382 66.1839 27.7981C66.1136 28.2376 65.9795 28.6644 65.7858 29.0649L66.0595 29.2765L66.0482 29.3212L72.1864 34.4545C72.1864 34.4545 72.4998 34.0478 69.6751 31.7356Z" fill="#5A5A5C"/>
<path d="M43.7833 28.7239C41.1292 31.2217 38.0555 32.6212 34.0741 33.9395C33.497 34.137 32.8628 34.3307 32.2225 34.5281C31.8105 34.6564 31.3972 34.7686 30.9865 34.8708C27.2643 35.8082 23.3752 35.8645 19.6276 35.035C19.5463 35.0166 19.474 34.9703 19.4232 34.9043C19.3726 34.8469 19.3426 34.7744 19.338 34.698V34.698C19.0277 31.6159 20.4613 27.8494 23.417 25.2429C24.7859 24.0334 26.4077 23.1457 28.1637 22.6449C30.3116 22.0191 32.5715 21.8789 34.7802 22.2343C35.1001 22.2834 35.4113 22.346 35.72 22.4187C39.4057 23.2589 42.4613 25.4499 43.8574 28.2833C43.8917 28.3547 43.9028 28.4351 43.8892 28.5131C43.8779 28.5931 43.8407 28.6672 43.7833 28.7239V28.7239Z" fill="#5A5A5C"/>
<path d="M19.524 35.6159L19.4843 35.6059C19.2825 35.5557 19.1022 35.4418 18.9702 35.2809C18.8817 35.1719 18.8165 35.0458 18.7787 34.9105V34.9105L18.7653 34.7752L18.7556 34.6882C18.4509 31.2697 20.1153 27.4241 23.0152 24.8511L23.0264 24.8064L23.0761 24.7767C24.4996 23.5297 26.1819 22.6145 28.0015 22.0971C30.2338 21.4512 32.5808 21.3044 34.876 21.6672C35.2244 21.7287 35.5468 21.7889 35.8505 21.8603C39.721 22.7418 42.9103 25.0511 44.383 28.0411C44.4761 28.22 44.5079 28.4247 44.4736 28.6235C44.4364 28.8344 44.3341 29.0283 44.1811 29.1779C41.4089 31.8096 38.2075 33.2138 34.2558 34.5184C33.68 34.711 33.0669 34.9047 32.3943 35.1045C31.976 35.2366 31.5454 35.3549 31.1186 35.4584C27.3181 36.4093 23.3488 36.4633 19.524 35.6159ZM23.7552 25.7241C21.1523 28.0395 19.6722 31.467 19.9057 34.498C23.5175 35.2728 27.2589 35.2053 30.8405 34.3007C31.245 34.2022 31.6533 34.0888 32.0529 33.9679C32.7169 33.7606 33.3188 33.5693 33.8946 33.3767C37.6402 32.1362 40.679 30.8124 43.271 28.394C41.9278 25.7903 39.0666 23.7698 35.6016 22.9747C35.314 22.9021 35.0264 22.8295 34.6965 22.7991C32.5732 22.4623 30.4019 22.5976 28.3367 23.1952C26.6681 23.6682 25.1256 24.5071 23.821 25.6509L23.7825 25.6993L23.7552 25.7241Z" fill="#5A5A5C"/>
<path d="M19.336 34.6922C19.336 34.6922 29.4481 27.604 42.5583 28.1087C42.5583 28.1087 37.6901 19.7958 27.4294 22.8872C27.4331 22.8723 19.1331 26.0519 19.336 34.6922Z" fill="#5A5A5C"/>
<path d="M41.946 28.1867C41.946 28.1867 38.3286 32.3736 34.9042 33.6581C31.4797 34.9427 23.5915 34.9373 20.7795 33.7474C23.1122 32.2502 25.6565 31.1126 28.327 30.3727C32.6306 29.2202 38.4556 28.2668 38.4556 28.2668C37.6837 29.6247 36.7117 30.8584 35.5723 31.9262C35.5723 31.9262 39.0303 29.9639 40.2133 28.156L41.946 28.1867Z" fill="#5A5A5C"/>
<path d="M19.798 35.3472L18.9065 34.5943C20.6468 32.5839 25.1742 30.5007 31.0225 29.0147C35.4662 27.8923 41.2489 27.0233 44.1506 27.9824L43.785 29.0991C41.5886 28.376 36.6899 28.7923 31.3056 30.1736C25.791 31.5485 21.3755 33.5438 19.798 35.3472Z" fill="#5A5A5C"/>
<path d="M34.0839 33.9682L32.7957 29.2615C32.3143 29.3723 30.0014 29.8868 29.5087 30.0423L31.0308 35.035L34.0839 33.9682Z" fill="white"/>
<path d="M30.6514 35.7892L28.7768 29.6622L29.3228 29.4833C29.7088 29.3537 31.0129 29.0545 32.2252 28.785L32.6657 28.6902L33.2253 28.5622L34.8166 34.3484L30.6514 35.7892ZM30.245 30.4497L31.4183 34.2723L33.3781 33.5895L32.3792 29.9535C31.7973 30.0865 30.8629 30.2995 30.245 30.4497Z" fill="#5A5A5C"/>
<path d="M32.6481 29.6785C32.4978 29.8727 32.3688 30.0827 32.2637 30.3048C32.1499 30.538 32.0649 30.7842 32.0105 31.038C31.9461 31.3004 31.9086 31.5686 31.8986 31.8386C31.8829 32.1169 31.8956 32.396 31.9366 32.6717C31.802 32.4179 31.6925 32.1516 31.6095 31.8765C31.5229 31.5944 31.4616 31.3051 31.4264 31.012C31.3899 30.7062 31.3864 30.3974 31.4157 30.0908C31.446 29.7702 31.5098 29.4536 31.6061 29.1464L32.6481 29.6785Z" fill="#5A5A5C"/>
<path d="M35.7132 22.4067C35.4058 22.3291 35.0983 22.2515 34.7734 22.2223C32.8406 22.3458 30.9511 22.8494 29.2128 23.7044C27.4746 24.5593 25.9217 25.7488 24.643 27.2049L23.1513 27.0133C23.457 26.1541 24.0126 25.4062 24.7468 24.866C25.9292 24.0029 23.5356 25.1728 23.4202 25.2334C20.8307 27.663 20.607 32.3631 20.6351 32.6077C21.547 31.8348 23.8202 30.6821 26.7207 29.656C26.5162 28.9603 26.2041 27.414 27.42 27.1929C28.0689 27.0874 27.8288 28.7741 27.4816 29.3781C30.0278 28.5161 32.6536 27.9107 35.32 27.5707C35.0645 26.9097 34.1321 24.2249 34.9304 23.7771C35.8157 23.2983 37.1614 23.9651 37.8507 24.7462C38.415 25.4164 38.8921 26.8936 39.0499 27.3768C40.6928 27.397 42.3212 27.6866 43.8705 28.2342C42.4682 25.4467 39.4139 23.2506 35.7132 22.4067ZM29.0033 26.2039C28.8149 26.1564 28.7387 25.8099 28.8349 25.4277C28.9312 25.0455 29.1624 24.7765 29.3508 24.824C29.5392 24.8716 29.6105 25.2169 29.5143 25.5991C29.418 25.9813 29.2017 26.254 29.0182 26.2077L29.0033 26.2039Z" fill="#5A5A5C"/>
<path d="M17.191 79.6728L11.6166 88.2596L13.1652 89.8171L20.969 84.1261L17.191 79.6728Z" fill="#5A5A5C"/>
<path d="M13.1033 90.5879L10.8652 88.3339L17.1238 78.7055L21.82 84.2457L13.1033 90.5879ZM12.37 88.1804L13.208 89.0412L20.0939 84.0213L17.2478 80.6636L12.37 88.1804Z" fill="#5A5A5C"/>
<path d="M12.5885 89.2384C12.5885 89.2384 17.1213 82.4001 18.1345 83.1098C19.1477 83.8194 12.7741 89.4225 12.7741 89.4225L12.5885 89.2384Z" fill="white"/>
<path d="M16.255 81.126C17.0292 81.654 16.76 82.9744 15.0025 84.9066C13.2449 86.8387 11.6124 88.2745 11.6124 88.2745L16.255 81.126Z" fill="white"/>
<path d="M13.1033 90.5879L10.8652 88.3339L17.1238 78.7055L21.82 84.2457L13.1033 90.5879ZM12.37 88.1804L13.208 89.0412L20.0939 84.0213L17.2478 80.6636L12.37 88.1804Z" fill="#5A5A5C"/>
<path d="M15.4422 82.611L14.593 83.4248L17.6585 86.63L18.5077 85.8161L15.4422 82.611Z" fill="#5A5A5C"/>
<path d="M53.9457 88.9465L54.788 99.1523L52.6919 99.7902L48.5153 91.0764L53.9457 88.9465Z" fill="#5A5A5C"/>
<path d="M52.3814 100.498L47.7082 90.7618L54.4629 88.1267L55.4107 99.5892L52.3814 100.498ZM49.3156 91.3944L53.0018 99.0817L54.1472 98.7214L53.4092 89.7772L49.3156 91.3944Z" fill="#5A5A5C"/>
<path d="M53.4679 99.5531C53.4679 99.5531 52.7148 91.381 51.4916 91.5264C50.2684 91.6718 53.2222 99.6283 53.2222 99.6283L53.4679 99.5531Z" fill="white"/>
<path d="M54.086 90.6711C53.1494 90.7674 52.7612 92.0578 53.3988 94.5943C54.0363 97.1307 54.784 99.1671 54.784 99.1671L54.086 90.6711Z" fill="white"/>
<path d="M52.3814 100.498L47.7082 90.7618L54.4629 88.1267L55.4107 99.5892L52.3814 100.498ZM49.3156 91.3944L53.0018 99.0817L54.1472 98.7214L53.4092 89.7772L49.3156 91.3944Z" fill="#5A5A5C"/>
<path d="M54.0949 92.3606L49.8782 93.729L50.2407 94.8485L54.4574 93.48L54.0949 92.3606Z" fill="#5A5A5C"/>
<path d="M50.288 30.6661L48.0119 30.0918L47.0758 33.8096L49.3518 34.3839L50.288 30.6661Z" fill="#5A5A5C"/>
<path d="M49.7732 35.0975L46.3615 34.2367L47.5852 29.3772L50.9968 30.238L49.7732 35.0975ZM47.7846 33.3816L48.9251 33.6693L49.5738 31.0931L48.4333 30.8054L47.7846 33.3816Z" fill="#5A5A5C"/>
<path d="M53.4852 29.5986C53.4177 29.871 53.2872 30.1238 53.1042 30.3365C52.9768 30.4866 52.8253 30.6143 52.6558 30.7143C52.4509 30.8341 52.2244 30.9118 51.9892 30.9431C51.7541 30.9744 51.5151 30.9586 51.2861 30.8967L47.0315 29.8232C46.6376 29.7242 46.2882 29.4958 46.0393 29.1746C45.7903 28.8534 45.6561 28.4579 45.6582 28.0513C45.6588 27.9047 45.6778 27.7587 45.7149 27.6169C45.7618 27.4278 45.8392 27.2476 45.9441 27.0835V27.0835C46.0938 26.8446 46.2977 26.6447 46.5394 26.4999C46.9563 26.262 47.4497 26.197 47.914 26.3188L52.1735 27.3935C52.3419 27.4349 52.5029 27.5022 52.6506 27.5931C52.9876 27.7922 53.251 28.0952 53.4014 28.4568C53.5519 28.8183 53.5813 29.2189 53.4852 29.5986V29.5986Z" fill="#5A5A5C"/>
<path d="M53.3164 28.2732C53.2403 28.133 53.1342 28.0114 53.0058 27.9169C52.8773 27.8225 52.7297 27.7575 52.5733 27.7267L52.6443 27.5915C52.4965 27.5006 52.3355 27.4333 52.1671 27.3919L47.9125 26.3184C47.4483 26.1966 46.9549 26.2616 46.5379 26.4995C46.2963 26.6443 46.0923 26.8443 45.9427 27.0831C46.5138 26.9199 47.1207 26.9315 47.6852 27.1163L51.9002 28.1798C51.843 28.4678 51.8979 28.7668 52.0536 29.0157C52.0783 29.1357 52.1312 29.2481 52.2079 29.3436C52.2845 29.4392 52.3828 29.5151 52.4945 29.5652C52.6063 29.6152 52.7283 29.6379 52.8506 29.6315C52.9728 29.625 53.0918 29.5896 53.1977 29.528C53.3035 29.4665 53.3933 29.3806 53.4595 29.2775C53.5257 29.1744 53.5664 29.0571 53.5784 28.9351C53.5903 28.8131 53.5732 28.6901 53.5283 28.5761C53.4833 28.4621 53.412 28.3604 53.3201 28.2794L53.3164 28.2732Z" fill="white"/>
<path d="M53.103 30.3364C52.9756 30.4864 52.824 30.6141 52.6545 30.7142C52.4497 30.8339 52.2231 30.9117 51.988 30.943C51.7529 30.9743 51.5139 30.9585 51.2849 30.8965L47.0303 29.823C46.6364 29.724 46.287 29.4956 46.038 29.1744C45.7891 28.8532 45.6549 28.4577 45.657 28.0511L46.1082 28.165C46.2939 27.742 47.2352 27.7525 48.2167 28.1691C49.0569 28.5394 49.6425 29.1042 49.6752 29.519C50.7906 29.8951 51.938 30.1687 53.103 30.3364Z" fill="white"/>
<path d="M51.1371 31.4874L46.8825 30.4139C46.3604 30.2828 45.8974 29.98 45.5676 29.5542C45.2378 29.1283 45.0604 28.6039 45.0638 28.0651C45.0663 27.872 45.0916 27.6799 45.1393 27.4929C45.2014 27.2429 45.3041 27.0049 45.4433 26.7883L45.5267 26.6668C45.8078 26.2772 46.1994 25.9813 46.6508 25.8174C47.1021 25.6536 47.5922 25.6294 48.0574 25.748L52.317 26.8227C52.5422 26.8794 52.7577 26.9694 52.9565 27.0896C53.4001 27.3554 53.7468 27.7567 53.9455 28.2345C54.1442 28.7123 54.1844 29.2413 54.0601 29.7437C53.9693 30.106 53.7944 30.4416 53.5497 30.7235C53.3808 30.9206 53.1816 31.0896 52.9596 31.224C52.688 31.3856 52.3873 31.4921 52.0746 31.5373C51.7618 31.5825 51.4433 31.5655 51.1371 31.4874ZM46.3846 27.4903C46.3336 27.5844 46.2942 27.6844 46.2674 27.7881C46.2448 27.8854 46.2321 27.9848 46.2297 28.0847C46.233 28.3589 46.3271 28.6243 46.4973 28.8392C46.6675 29.0541 46.9041 29.2064 47.17 29.2722L51.4295 30.347C51.6516 30.4027 51.8848 30.3951 52.1028 30.3251C52.3208 30.2551 52.5149 30.1255 52.6632 29.9508C52.7884 29.8096 52.8781 29.6403 52.9246 29.4572C52.9883 29.2002 52.9677 28.9296 52.8658 28.6853C52.764 28.4409 52.5864 28.2358 52.3592 28.1003C52.2585 28.039 52.149 27.9935 52.0345 27.9656L47.7699 26.8896C47.6137 26.8492 47.4509 26.8403 47.2912 26.8634C47.1314 26.8866 46.9779 26.9413 46.8395 27.0244C46.6752 27.1193 46.5366 27.2528 46.4356 27.4135L46.3846 27.4903Z" fill="#5A5A5C"/>
<path d="M63.5498 53.5855L62.3167 54.0811L62.3795 54.2377L63.6126 53.7422L63.5498 53.5855Z" fill="#5A5A5C"/>
<path d="M34.5107 88.5088C48.727 92.0958 63.1565 83.4674 66.7398 69.2368C70.3232 55.0062 61.7035 40.5622 47.4872 36.9752C33.2709 33.3883 18.8414 42.0167 15.2581 56.2473C11.6747 70.4779 20.2944 84.9219 34.5107 88.5088Z" fill="white"/>
<path d="M56.3741 69.4167C60.0594 60.9152 56.162 51.0328 47.6691 47.3438C39.1761 43.6548 29.3037 47.5561 25.6184 56.0576C21.9331 64.5591 25.8304 74.4415 34.3234 78.1305C42.8163 81.8195 52.6888 77.9182 56.3741 69.4167Z" fill="#FF946E"/>
<path d="M34.3664 89.0798C29.1609 87.7674 24.4611 84.9392 20.8614 80.9529C17.2618 76.9666 14.924 72.0013 14.1437 66.6849C13.3634 61.3685 14.1756 55.9398 16.4777 51.0856C18.7798 46.2313 22.4683 42.1695 27.0767 39.4138C31.6852 36.6581 37.0065 35.3323 42.3677 35.6042C47.7289 35.876 52.8891 37.7333 57.1957 40.9411C61.5024 44.1488 64.7619 48.563 66.5622 53.6253C68.3624 58.6876 68.6225 64.1706 67.3095 69.3808C65.5433 76.3616 61.083 82.356 54.9071 86.049C48.7312 89.742 41.3441 90.832 34.3664 89.0798V89.0798ZM47.3441 37.5412C42.3648 36.2849 37.1252 36.5348 32.2878 38.2593C27.4504 39.9838 23.2326 43.1055 20.1675 47.2296C17.1025 51.3536 15.3281 56.2949 15.0685 61.4285C14.809 66.5621 16.076 71.6575 18.7094 76.0703C21.3428 80.483 25.2243 84.015 29.863 86.2196C34.5017 88.4242 39.6894 89.2023 44.7699 88.4556C49.8504 87.7089 54.5957 85.4709 58.4056 82.0247C62.2154 78.5784 64.9188 74.0786 66.1739 69.0943C67.8484 62.411 66.8064 55.3358 63.2764 49.4205C59.7464 43.5053 54.0167 39.2332 47.3441 37.5412V37.5412Z" fill="#5A5A5C"/>
<path d="M48.2118 34.0964C42.5519 32.6694 36.5963 32.9544 31.0982 34.9154C25.6001 36.8764 20.8063 40.4253 17.3231 45.1134C13.8398 49.8015 11.8235 55.4183 11.5292 61.2534C11.2348 67.0886 12.6755 72.8801 15.6692 77.8956C18.6629 82.9111 23.0751 86.9255 28.3479 89.431C33.6207 91.9364 39.5173 92.8206 45.292 91.9716C51.0668 91.1226 56.4604 88.5786 60.7908 84.6613C65.1212 80.744 68.194 75.6293 69.6206 69.9639C70.5679 66.2016 70.7657 62.2894 70.2024 58.4507C69.6392 54.612 68.3261 50.9219 66.338 47.5912C64.35 44.2605 61.726 41.3545 58.6159 39.039C55.5058 36.7236 51.9705 35.044 48.2118 34.0964V34.0964ZM34.5104 88.509C29.4182 87.2241 24.8209 84.4565 21.3001 80.5562C17.7792 76.6558 15.4929 71.7979 14.7303 66.5968C13.9676 61.3957 14.763 56.0851 17.0156 51.3364C19.2683 46.5878 22.8772 42.6146 27.3858 39.9191C31.8945 37.2237 37.1004 35.9272 42.3451 36.1935C47.5899 36.4598 52.638 38.2771 56.851 41.4154C61.064 44.5537 64.2526 48.8722 66.0137 53.8246C67.7747 58.7771 68.029 64.1411 66.7445 69.2382C65.8924 72.6224 64.3826 75.8053 62.3014 78.6054C60.2202 81.4054 57.6084 83.7676 54.6151 85.5571C51.6218 87.3466 48.3057 88.5284 44.8561 89.0348C41.4065 89.5413 37.891 89.3626 34.5104 88.509V88.509Z" fill="#5A5A5C"/>
<path d="M16.4504 74.1909L16.7172 74.7861C16.8148 74.985 16.9149 75.1739 17.0087 75.3876C17.1026 75.6013 17.2126 75.7716 17.3177 75.9618L17.4734 76.2439L17.6465 76.5199C18.0886 77.2585 18.5708 77.9724 19.091 78.6581L19.4894 79.1704C19.6156 79.3395 19.7592 79.5024 19.8916 79.6678C20.1601 80.0048 20.4459 80.3356 20.7331 80.6403C20.8717 80.802 21.0227 80.9563 21.1688 81.1092L21.6106 81.5744C21.9152 81.873 22.2247 82.1728 22.5317 82.4614C25.0252 84.7802 27.9262 86.6165 31.0879 87.8775C31.482 88.0297 31.8737 88.1919 32.2753 88.3144C32.6769 88.4368 33.0747 88.5953 33.4875 88.6941L34.1024 88.8493C34.3107 88.9018 34.514 88.9531 34.7223 89.0057L35.962 89.2763C37.6358 89.5872 39.3329 89.7558 41.0351 89.7802L41.6763 89.7889C41.8921 89.7906 42.1017 89.796 42.3163 89.7815L43.5989 89.7355C44.0305 89.7178 44.4548 89.6664 44.8853 89.6325L45.5266 89.5779L46.1655 89.491C46.596 89.4359 47.0253 89.3859 47.452 89.3246C47.8788 89.2634 48.3044 89.1649 48.7225 89.1173L49.3677 89.0055L49.9992 88.864L51.2797 88.5958C50.8751 88.7577 50.4605 88.917 50.0559 89.0578L49.4403 89.2825L48.8161 89.4787L47.5564 89.8525C47.1283 89.9609 46.704 90.0544 46.2771 90.1579L45.6331 90.3069L44.983 90.4173C44.5487 90.4873 44.1157 90.5733 43.6828 90.6172L42.3702 90.7612C42.1519 90.7905 41.9286 90.7975 41.7091 90.8108L41.0479 90.8393C39.2719 90.9228 37.492 90.8274 35.7351 90.5546C35.2949 90.4805 34.8598 90.3865 34.4221 90.3025C34.2089 90.2487 33.9907 90.1937 33.7775 90.1399L33.1279 89.9759C32.6965 89.8671 32.275 89.7185 31.8499 89.5849C31.4247 89.4512 31.0071 89.2877 30.5931 89.1305C25.5971 87.151 21.3743 83.6079 18.5545 79.0296C18.0882 78.2613 17.6725 77.4634 17.3102 76.6409C16.9501 75.852 16.6624 75.0319 16.4504 74.1909V74.1909Z" fill="#5A5A5C"/>
<path d="M53.3918 37.5676C55.6204 38.7686 57.74 40.1619 59.7266 41.7316C60.7217 42.5336 61.6627 43.4006 62.5433 44.327C65.2071 47.1433 67.1347 50.5746 68.1549 54.3161C68.817 56.8006 69.1793 59.3556 69.2341 61.9264L69.2459 62.8849C69.249 63.2077 69.2322 63.5255 69.2304 63.847C69.218 64.4827 69.1919 65.1307 69.1361 65.7712C69.1132 66.0928 69.0691 66.4142 69.0363 66.7332C69.0034 67.0523 68.9544 67.3725 68.8955 67.6902C68.7938 68.3244 68.6661 68.9574 68.5086 69.5828C67.8891 72.0877 66.8692 74.4759 65.4884 76.655C64.7998 77.736 64.0299 78.763 63.1855 79.727C62.3425 80.6892 61.4349 81.5926 60.4689 82.4308C59.5063 83.2628 58.4887 84.029 57.4233 84.7243C56.3655 85.4149 55.2526 86.017 54.0958 86.5242C54.6545 86.2323 55.1922 85.8982 55.7225 85.5515C56.2528 85.2049 56.7645 84.8484 57.2712 84.4694C58.2796 83.7156 59.2405 82.9003 60.1485 82.0279C61.9665 80.3085 63.5421 78.3493 64.8319 76.2043C65.1505 75.6723 65.4467 75.1241 65.7194 74.5647C65.9922 74.0053 66.2599 73.4446 66.4892 72.869C66.9562 71.7191 67.3321 70.5342 67.6136 69.3253C67.8951 68.117 68.0861 66.8894 68.185 65.6527C68.2346 65.037 68.2581 64.42 68.2631 63.793C68.2686 63.4777 68.2792 63.1636 68.2723 62.8557L68.2555 61.917C68.2156 59.4238 67.8861 56.9437 67.2739 54.5267C66.9539 53.3251 66.5449 52.149 66.0503 51.0083C65.5566 49.8681 64.977 48.7671 64.3166 47.7148C62.9537 45.6105 61.3024 43.7083 59.411 42.0638C57.511 40.4274 55.4998 38.9251 53.3918 37.5676V37.5676Z" fill="#5A5A5C"/>
<path d="M12.0618 63.2014C12.0403 62.0926 12.0574 60.9778 12.1315 59.8667C12.1909 58.7475 12.3286 57.6339 12.5435 56.534C12.9948 54.3298 13.7111 52.1884 14.6767 50.1566C16.638 46.06 19.5391 42.4857 23.1433 39.7253C26.7474 36.9649 30.9525 35.0966 35.4154 34.2728C36.5222 34.0705 37.6398 33.933 38.7625 33.8609C39.8833 33.7979 41.0067 33.7976 42.1274 33.86C44.3521 33.9959 46.5514 34.4072 48.6751 35.0844C46.508 34.6814 44.3065 34.4937 42.1026 34.5241C41.0091 34.5379 39.9173 34.615 38.8327 34.7549C37.7581 34.8722 36.6907 35.0488 35.6355 35.2838C31.3936 36.2562 27.4094 38.1278 23.9515 40.7723C20.4935 43.4168 17.6422 46.7728 15.5899 50.614C14.5624 52.544 13.7395 54.5764 13.1348 56.6779C12.8469 57.7386 12.6233 58.8157 12.465 59.9034C12.2856 60.9931 12.1768 62.0954 12.0618 63.2014Z" fill="#5A5A5C"/>
<path d="M16.6443 49.1241L13.9846 50.6453L14.5681 51.6675L17.2278 50.1463L16.6443 49.1241Z" fill="#5A5A5C"/>
<path d="M16.6583 50.2236L14.7238 52.0002L14.1958 51.1438L16.6583 50.2236Z" fill="#5A5A5C"/>
<path d="M33.6426 91.9535C27.8697 90.497 22.6579 87.3595 18.6664 82.9378C14.675 78.5161 12.083 73.0089 11.2185 67.1126C10.3539 61.2164 11.2554 55.1959 13.8092 49.8125C16.3629 44.4292 20.4541 39.9248 25.5653 36.869C30.6766 33.8132 36.5783 32.3433 42.5241 32.6452C48.4699 32.947 54.1928 35.0071 58.9689 38.5648C63.7451 42.1226 67.36 47.0182 69.3565 52.6325C71.3531 58.2469 71.6415 64.3278 70.1854 70.1062C68.2259 77.8494 63.2779 84.4982 56.4271 88.594C49.5763 92.6898 41.3822 93.898 33.6426 91.9535V91.9535ZM48.0677 34.667C42.5206 33.2674 36.6834 33.5458 31.2943 35.4669C25.9053 37.3881 21.2064 40.8658 17.7918 45.4602C14.3773 50.0546 12.4004 55.5594 12.1113 61.2785C11.8221 66.9975 13.2336 72.674 16.1674 77.59C19.1011 82.506 23.4252 86.4408 28.593 88.8968C33.7607 91.3528 39.54 92.2197 45.1999 91.3879C50.8599 90.556 56.1463 88.0628 60.3906 84.2235C64.635 80.3841 67.6467 75.3712 69.0449 69.8185C70.9114 62.373 69.7509 54.4904 65.8182 47.9003C61.8855 41.3103 55.5017 36.5511 48.0677 34.667V34.667Z" fill="#5A5A5C"/>
<path d="M43.2355 63.3064C43.124 63.7492 42.8838 64.1489 42.5454 64.455C42.207 64.7612 41.7854 64.96 41.3341 65.0263C40.8828 65.0926 40.422 65.0235 40.0099 64.8277C39.5979 64.6319 39.253 64.3181 39.0191 63.9261C38.7852 63.5341 38.6726 63.0815 38.6957 62.6254C38.7187 62.1694 38.8764 61.7305 39.1486 61.3641C39.4209 60.9978 39.7956 60.7205 40.2253 60.5673C40.655 60.4141 41.1205 60.3919 41.5628 60.5035C41.8568 60.577 42.1335 60.7079 42.3768 60.8887C42.6202 61.0695 42.8255 61.2966 42.9809 61.5571C43.1363 61.8175 43.2388 62.1061 43.2825 62.4063C43.3262 62.7065 43.3102 63.0124 43.2355 63.3064Z" fill="#5A5A5C"/>
<path d="M45.0419 46.6845L41.4403 52.987L40.8349 62.7009L40.9985 62.7422L41.1621 62.7835L45.2338 53.9442L45.0419 46.6845Z" fill="#5A5A5C"/>
<path d="M39.3991 63.8539L28.225 68.4992L24.899 71.4873L29.2414 70.1176L39.556 64.1733L39.3991 63.8539Z" fill="#5A5A5C"/>
<path d="M41.497 61.3737C41.7489 61.4254 41.9767 61.5589 42.1449 61.7536C42.3265 61.9542 42.447 62.2025 42.4921 62.4694C42.5302 62.7275 42.5019 62.9911 42.41 63.2353C42.3246 63.4781 42.161 63.6857 41.945 63.8254C41.9874 63.602 42.0143 63.376 42.0257 63.1489C42.0326 62.9468 42.0217 62.7444 41.9933 62.5442C41.9657 62.3489 41.9127 62.158 41.8357 61.9765C41.7375 61.7676 41.6243 61.5662 41.497 61.3737V61.3737Z" fill="white"/>
<path d="M46.6864 40.156C46.9164 40.214 47.1498 40.0746 47.2077 39.8446C47.2656 39.6146 47.1261 39.3811 46.8961 39.3231C46.6662 39.2651 46.4328 39.4045 46.3749 39.6345C46.3169 39.8645 46.4564 40.098 46.6864 40.156Z" fill="#5A5A5C"/>
<path d="M57.7723 45.8095C57.7522 45.8933 57.7077 45.9693 57.6444 46.0277C57.5811 46.0861 57.5018 46.1244 57.4167 46.1376C57.3316 46.1509 57.2444 46.1385 57.1663 46.1021C57.0882 46.0657 57.0226 46.0069 56.978 45.9332C56.9334 45.8595 56.9117 45.7741 56.9156 45.6881C56.9196 45.602 56.949 45.519 57.0002 45.4497C57.0514 45.3804 57.1221 45.328 57.2032 45.2989C57.2843 45.2699 57.3722 45.2657 57.4558 45.2868C57.511 45.3 57.5631 45.3241 57.609 45.3576C57.6549 45.3911 57.6937 45.4334 57.7231 45.4821C57.7526 45.5307 57.7721 45.5847 57.7805 45.6409C57.7889 45.6971 57.7861 45.7544 57.7723 45.8095Z" fill="#5A5A5C"/>
<path d="M34.9542 39.8308C34.9697 39.8852 34.9743 39.9422 34.9678 39.9984C34.9612 40.0546 34.9436 40.109 34.916 40.1584C34.8884 40.2077 34.8513 40.2512 34.8068 40.2862C34.7624 40.3211 34.7114 40.347 34.6569 40.3622C34.5752 40.385 34.4886 40.3831 34.408 40.3568C34.3273 40.3304 34.2563 40.2807 34.2038 40.214C34.1514 40.1473 34.1198 40.0666 34.1132 39.982C34.1065 39.8974 34.1251 39.8127 34.1665 39.7387C34.2079 39.6647 34.2703 39.6046 34.3459 39.566C34.4214 39.5274 34.5067 39.5121 34.591 39.5219C34.6752 39.5318 34.7547 39.5664 34.8193 39.6214C34.884 39.6763 34.9309 39.7492 34.9542 39.8308Z" fill="#5A5A5C"/>
<path d="M24.3355 45.9574C24.3806 45.9954 24.4174 46.0423 24.4435 46.0952C24.4697 46.1481 24.4847 46.2057 24.4876 46.2647C24.4905 46.3236 24.4812 46.3824 24.4604 46.4376C24.4396 46.4928 24.4076 46.543 24.3665 46.5853C24.3253 46.6275 24.2759 46.6609 24.2214 46.6832C24.1668 46.7055 24.1082 46.7163 24.0493 46.715C23.9903 46.7137 23.9323 46.7002 23.8787 46.6755C23.8252 46.6508 23.7773 46.6153 23.7381 46.5712C23.693 46.5332 23.6562 46.4862 23.6301 46.4334C23.6039 46.3805 23.5889 46.3228 23.586 46.2639C23.5831 46.205 23.5924 46.1461 23.6132 46.091C23.634 46.0358 23.666 45.9855 23.7071 45.9433C23.7483 45.901 23.7977 45.8677 23.8522 45.8454C23.9068 45.8231 23.9654 45.8122 24.0243 45.8136C24.0833 45.8149 24.1413 45.8283 24.1949 45.8531C24.2484 45.8778 24.2963 45.9133 24.3355 45.9574V45.9574Z" fill="#5A5A5C"/>
<path d="M18.1969 56.5719C18.3074 56.5997 18.4022 56.6703 18.4606 56.7681C18.5191 56.8659 18.5363 56.9829 18.5085 57.0934C18.4806 57.2038 18.4101 57.2987 18.3123 57.3571C18.2146 57.4155 18.0976 57.4326 17.9872 57.4048C17.8767 57.3769 17.7819 57.3063 17.7234 57.2085C17.665 57.1107 17.6478 56.9937 17.6756 56.8833C17.7034 56.7728 17.774 56.6779 17.8718 56.6195C17.9695 56.5612 18.0865 56.544 18.1969 56.5719Z" fill="#5A5A5C"/>
<path d="M18.1884 68.8384C18.2701 68.8155 18.3568 68.8174 18.4374 68.8438C18.5181 68.8702 18.5891 68.9198 18.6416 68.9865C18.694 69.0532 18.7256 69.134 18.7322 69.2186C18.7389 69.3032 18.7203 69.3878 18.6789 69.4619C18.6375 69.5359 18.5751 69.596 18.4995 69.6346C18.424 69.6732 18.3387 69.6885 18.2544 69.6786C18.1702 69.6688 18.0907 69.6342 18.026 69.5792C17.9614 69.5242 17.9145 69.4513 17.8912 69.3697C17.8612 69.2598 17.8756 69.1426 17.9312 69.0432C17.9868 68.9438 18.0792 68.8703 18.1884 68.8384V68.8384Z" fill="#5A5A5C"/>
<path d="M24.3046 79.4615C24.3845 79.3804 24.493 79.334 24.6069 79.3321C24.7207 79.3303 24.8308 79.3732 24.9133 79.4517C24.9742 79.5109 25.0161 79.5867 25.0339 79.6697C25.0516 79.7527 25.0444 79.8391 25.0132 79.9179C24.9819 79.9968 24.928 80.0646 24.8582 80.1129C24.7884 80.1611 24.7059 80.1876 24.6211 80.1889C24.5363 80.1903 24.4529 80.1665 24.3816 80.1206C24.3103 80.0746 24.2541 80.0086 24.2203 79.9308C24.1864 79.8529 24.1763 79.7669 24.1913 79.6833C24.2063 79.5998 24.2457 79.5227 24.3046 79.4615V79.4615Z" fill="#5A5A5C"/>
<path d="M35.2245 86.133C35.4545 86.1911 35.6878 86.0517 35.7458 85.8217C35.8037 85.5917 35.6642 85.3582 35.4342 85.3001C35.2042 85.2421 34.9709 85.3815 34.9129 85.6115C34.855 85.8415 34.9945 86.075 35.2245 86.133Z" fill="#5A5A5C"/>
<path d="M47.1668 85.62C47.1439 85.5382 47.1458 85.4516 47.1721 85.3709C47.1985 85.2903 47.2481 85.2193 47.3148 85.1668C47.3814 85.1144 47.4621 85.0828 47.5467 85.0762C47.6313 85.0696 47.7159 85.0882 47.79 85.1297C47.864 85.1711 47.9241 85.2336 47.9627 85.3092C48.0013 85.3847 48.0167 85.47 48.0069 85.5543C47.997 85.6386 47.9625 85.7181 47.9076 85.7827C47.8526 85.8473 47.7798 85.8942 47.6982 85.9175C47.6438 85.933 47.5868 85.9376 47.5306 85.931C47.4744 85.9245 47.4201 85.9068 47.3707 85.8792C47.3213 85.8515 47.2779 85.8144 47.2429 85.7699C47.2079 85.7254 47.182 85.6745 47.1668 85.62V85.62Z" fill="#5A5A5C"/>
<path d="M57.7849 79.4985C57.7241 79.4393 57.6821 79.3635 57.6644 79.2805C57.6466 79.1975 57.6538 79.1111 57.6851 79.0323C57.7163 78.9534 57.7703 78.8856 57.84 78.8373C57.9098 78.7891 57.9923 78.7626 58.0771 78.7613C58.162 78.7599 58.2453 78.7837 58.3166 78.8296C58.388 78.8756 58.4441 78.9416 58.478 79.0194C58.5118 79.0972 58.5219 79.1833 58.5069 79.2669C58.4919 79.3504 58.4525 79.4275 58.3937 79.4887C58.3138 79.5698 58.2052 79.6162 58.0913 79.6181C57.9775 79.6199 57.8674 79.577 57.7849 79.4985V79.4985Z" fill="#5A5A5C"/>
<path d="M63.9257 68.8691C63.8152 68.8413 63.7204 68.7707 63.6619 68.6729C63.6035 68.5751 63.5863 68.4581 63.6141 68.3476C63.6419 68.2372 63.7125 68.1423 63.8102 68.0839C63.908 68.0255 64.025 68.0084 64.1354 68.0362C64.2458 68.0641 64.3407 68.1347 64.3991 68.2325C64.4576 68.3303 64.4748 68.4473 64.4469 68.5577C64.4191 68.6682 64.3486 68.763 64.2508 68.8214C64.1531 68.8798 64.0361 68.897 63.9257 68.8691Z" fill="#5A5A5C"/>
<path d="M63.9323 56.6127C63.8506 56.6355 63.764 56.6336 63.6834 56.6072C63.6027 56.5809 63.5317 56.5312 63.4792 56.4645C63.4268 56.3978 63.3952 56.3171 63.3886 56.2325C63.3819 56.1479 63.4005 56.0632 63.4419 55.9892C63.4833 55.9151 63.5457 55.855 63.6213 55.8165C63.6968 55.7779 63.7821 55.7626 63.8664 55.7724C63.9506 55.7823 64.0301 55.8169 64.0947 55.8718C64.1594 55.9268 64.2063 55.9997 64.2296 56.0813C64.2451 56.1357 64.2497 56.1927 64.2432 56.2489C64.2366 56.3051 64.2191 56.3595 64.1914 56.4089C64.1638 56.4582 64.1267 56.5017 64.0822 56.5366C64.0378 56.5716 63.9868 56.5975 63.9323 56.6127Z" fill="#5A5A5C"/>
<path d="M44.6184 38.6565L44.2844 38.6086L44.0962 39.9246L44.4302 39.9725L44.6184 38.6565Z" fill="#5A5A5C"/>
<path d="M42.0815 38.4067L41.7444 38.394L41.6946 39.7225L42.0318 39.7352L42.0815 38.4067Z" fill="#5A5A5C"/>
<path d="M39.5322 38.4302L39.1955 38.4529L39.2848 39.7793L39.6214 39.7567L39.5322 38.4302Z" fill="#5A5A5C"/>
<path d="M37.0064 38.7157L36.6741 38.7734L36.9013 40.0834L37.2337 40.0256L37.0064 38.7157Z" fill="#5A5A5C"/>
<path d="M32.1033 40.0647L31.7903 40.1904L32.2847 41.4246L32.5978 41.299L32.1033 40.0647Z" fill="#5A5A5C"/>
<path d="M29.7838 41.1245L29.4856 41.2822L30.1063 42.458L30.4045 42.3003L29.7838 41.1245Z" fill="#5A5A5C"/>
<path d="M27.5928 42.4287L27.3127 42.6167L28.0527 43.7214L28.3328 43.5334L27.5928 42.4287Z" fill="#5A5A5C"/>
<path d="M25.5394 43.9355L25.2805 44.1519L26.132 45.173L26.3909 44.9567L25.5394 43.9355Z" fill="#5A5A5C"/>
<path d="M21.9751 47.5745L21.7668 47.8398L22.8118 48.6618L23.0202 48.3964L21.9751 47.5745Z" fill="#5A5A5C"/>
<path d="M20.496 49.6403L20.3166 49.926L21.4419 50.6339L21.6213 50.3482L20.496 49.6403Z" fill="#5A5A5C"/>
<path d="M19.2338 51.8521L19.0852 52.155L20.2783 52.7413L20.4269 52.4384L19.2338 51.8521Z" fill="#5A5A5C"/>
<path d="M18.2189 54.1839L18.1028 54.5007L19.3506 54.959L19.4667 54.6422L18.2189 54.1839Z" fill="#5A5A5C"/>
<path d="M18.2633 59.315L16.9475 59.1265L16.8997 59.4605L18.2155 59.6491L18.2633 59.315Z" fill="#5A5A5C"/>
<path d="M18.3579 61.7331L17.0266 61.6853L17.0145 62.0233L18.3458 62.0711L18.3579 61.7331Z" fill="#5A5A5C"/>
<path d="M18.048 64.1159L16.7219 64.2048L16.7444 64.5416L18.0706 64.4526L18.048 64.1159Z" fill="#5A5A5C"/>
<path d="M18.3134 66.5163L17.0041 66.7449L17.0621 67.0774L18.3713 66.8488L18.3134 66.5163Z" fill="#5A5A5C"/>
<path d="M19.5927 71.1544L18.3596 71.6499L18.4852 71.9632L19.7184 71.4676L19.5927 71.1544Z" fill="#5A5A5C"/>
<path d="M20.5863 73.3532L19.4114 73.9741L19.5688 74.2727L20.7438 73.6517L20.5863 73.3532Z" fill="#5A5A5C"/>
<path d="M21.8113 75.4209L20.7082 76.1621L20.8962 76.4424L21.9993 75.7012L21.8113 75.4209Z" fill="#5A5A5C"/>
<path d="M23.2362 77.3579L22.216 78.2097L22.4321 78.469L23.4522 77.6172L23.2362 77.3579Z" fill="#5A5A5C"/>
<path d="M26.6601 80.7305L25.8401 81.7764L26.1055 81.9849L26.9255 80.939L26.6601 80.7305Z" fill="#5A5A5C"/>
<path d="M28.6216 82.1558L27.9153 83.2817L28.201 83.4613L28.9073 82.3355L28.6216 82.1558Z" fill="#5A5A5C"/>
<path d="M30.7154 83.3323L30.1301 84.5256L30.433 84.6745L31.0182 83.4811L30.7154 83.3323Z" fill="#5A5A5C"/>
<path d="M32.9244 84.2954L32.467 85.5435L32.7838 85.6598L33.2412 84.4118L32.9244 84.2954Z" fill="#5A5A5C"/>
<path d="M37.9026 85.564L37.5686 85.5161L37.3804 86.8321L37.7144 86.8799L37.9026 85.564Z" fill="#5A5A5C"/>
<path d="M40.2993 85.7605L39.9621 85.7478L39.9124 87.0763L40.2495 87.0889L40.2993 85.7605Z" fill="#5A5A5C"/>
<path d="M42.7148 85.6965L42.3782 85.7192L42.4674 87.0457L42.804 87.023L42.7148 85.6965Z" fill="#5A5A5C"/>
<path d="M45.0953 85.4029L44.7629 85.4607L44.9902 86.7706L45.3226 86.7128L45.0953 85.4029Z" fill="#5A5A5C"/>
<path d="M49.7176 84.0501L49.4045 84.1758L49.899 85.41L50.2121 85.2843L49.7176 84.0501Z" fill="#5A5A5C"/>
<path d="M51.897 83.0036L51.5989 83.1614L52.2198 84.3371L52.5179 84.1793L51.897 83.0036Z" fill="#5A5A5C"/>
<path d="M53.9522 81.7785L53.6721 81.9666L54.4123 83.0711L54.6923 82.883L53.9522 81.7785Z" fill="#5A5A5C"/>
<path d="M55.8734 80.3152L55.6145 80.5315L56.466 81.5526L56.7249 81.3363L55.8734 80.3152Z" fill="#5A5A5C"/>
<path d="M59.1958 76.8298L58.9875 77.0952L60.0327 77.9169L60.241 77.6515L59.1958 76.8298Z" fill="#5A5A5C"/>
<path d="M60.5664 74.852L60.387 75.1377L61.5123 75.8456L61.6917 75.5599L60.5664 74.852Z" fill="#5A5A5C"/>
<path d="M61.7221 72.7442L61.5735 73.0471L62.7666 73.6334L62.9152 73.3305L61.7221 72.7442Z" fill="#5A5A5C"/>
<path d="M62.6544 70.5196L62.5383 70.8364L63.7862 71.2947L63.9023 70.9779L62.6544 70.5196Z" fill="#5A5A5C"/>
<path d="M65.1051 66.0203L63.7893 65.8318L63.7415 66.1658L65.0573 66.3544L65.1051 66.0203Z" fill="#5A5A5C"/>
<path d="M65.7388 63.4181L64.4075 63.3704L64.3954 63.7084L65.7267 63.7561L65.7388 63.4181Z" fill="#5A5A5C"/>
<path d="M65.26 60.9352L63.9338 61.0242L63.9564 61.3609L65.2825 61.272L65.26 60.9352Z" fill="#5A5A5C"/>
<path d="M64.9433 58.3962L63.634 58.6248L63.692 58.9572L65.0012 58.7287L64.9433 58.3962Z" fill="#5A5A5C"/>
<path d="M62.4329 51.2155L61.2581 51.8367L61.4156 52.1352L62.5904 51.514L62.4329 51.2155Z" fill="#5A5A5C"/>
<path d="M61.1114 49.0453L60.0081 49.7861L60.1959 50.0665L61.2993 49.3257L61.1114 49.0453Z" fill="#5A5A5C"/>
<path d="M59.5682 47.0054L58.5481 47.8572L58.7642 48.1165L59.7843 47.2647L59.5682 47.0054Z" fill="#5A5A5C"/>
<path d="M55.9024 43.4977L55.0813 44.5427L55.3465 44.7515L56.1676 43.7065L55.9024 43.4977Z" fill="#5A5A5C"/>
<path d="M53.804 42.0361L53.0979 43.1621L53.3836 43.3417L54.0898 42.2156L53.804 42.0361Z" fill="#5A5A5C"/>
<path d="M51.5689 40.8076L50.9836 42.001L51.2865 42.1498L51.8717 40.9565L51.5689 40.8076Z" fill="#5A5A5C"/>
<path d="M49.2252 39.826L48.7678 41.074L49.0846 41.1903L49.542 39.9423L49.2252 39.826Z" fill="#5A5A5C"/>
<path d="M37.5084 81.2096L37.3509 81.835C37.2039 81.6928 37.0217 81.5922 36.8231 81.5435C36.7068 81.5112 36.5846 81.5066 36.4661 81.5298C36.3477 81.5531 36.2363 81.6036 36.1407 81.6775C35.9206 81.8604 35.7681 82.1119 35.7077 82.3918V82.3918C35.8147 82.2946 35.9451 82.2272 36.0862 82.1961C36.2272 82.165 36.3739 82.1714 36.5118 82.2145C36.6407 82.2411 36.762 82.2961 36.867 82.3755C36.972 82.455 37.058 82.5569 37.1186 82.6738C37.2361 82.9356 37.2553 83.231 37.1728 83.5058C37.1382 83.6644 37.0719 83.8145 36.9779 83.9468C36.8838 84.0791 36.764 84.191 36.6256 84.2757C36.4872 84.3601 36.3328 84.4146 36.1721 84.4359C36.0115 84.4572 35.8482 84.4447 35.6927 84.3993C35.5194 84.3632 35.3571 84.2866 35.2191 84.1756C35.0811 84.0646 34.9714 83.9225 34.8989 83.7608C34.7523 83.3576 34.7427 82.9173 34.8715 82.5081C34.9728 81.9963 35.2454 81.5343 35.6443 81.1985C35.8205 81.0607 36.027 80.967 36.2467 80.9251C36.4664 80.8832 36.6929 80.8943 36.9074 80.9576C37.1229 80.9992 37.3276 81.085 37.5084 81.2096V81.2096ZM36.1288 82.7092C36.0675 82.691 36.0029 82.6871 35.9399 82.6977C35.8769 82.7084 35.8172 82.7333 35.7653 82.7705C35.654 82.8542 35.5767 82.9753 35.5476 83.1115C35.5063 83.2631 35.5138 83.4239 35.569 83.5709C35.5902 83.6345 35.6274 83.6915 35.6771 83.7364C35.7268 83.7813 35.7872 83.8126 35.8525 83.8273C35.9148 83.8457 35.9805 83.8488 36.0442 83.8364C36.108 83.824 36.1677 83.7964 36.2185 83.756C36.3334 83.6549 36.4121 83.519 36.4425 83.369C36.5325 83.0116 36.43 82.7904 36.1275 82.7141L36.1288 82.7092Z" fill="#5A5A5C"/>
<path d="M59.4526 69.188L59.6176 68.5327C59.8061 68.7607 60.0642 68.9204 60.3522 68.9873C60.51 69.0356 60.6791 69.032 60.8347 68.9771C60.897 68.9488 60.9518 68.9063 60.9946 68.8529C61.0373 68.7995 61.0669 68.7367 61.0809 68.6697C61.1003 68.5989 61.1004 68.5242 61.0811 68.4534C61.0618 68.3826 61.0239 68.3183 60.9713 68.2672C60.8265 68.1353 60.6489 68.0449 60.4571 68.0055L60.1496 67.9279L60.2946 67.3521L60.5773 67.4234C61.0236 67.536 61.278 67.4471 61.353 67.1493C61.428 66.8515 61.2894 66.6898 60.9621 66.6072C60.7219 66.551 60.4701 66.5705 60.2414 66.663L60.3964 66.0474C60.6893 65.9902 60.9915 66.0014 61.2794 66.0802C61.5733 66.1365 61.8393 66.2911 62.0339 66.5187C62.1089 66.6149 62.1604 66.7273 62.1843 66.847C62.2081 66.9667 62.2038 67.0903 62.1715 67.208C62.1333 67.41 62.0207 67.5903 61.856 67.713C61.6912 67.8357 61.4864 67.8919 61.2821 67.8705V67.8705C61.4938 67.9406 61.6729 68.0852 61.7861 68.2775C61.8365 68.365 61.8691 68.4616 61.8819 68.5618C61.8947 68.662 61.8875 68.7638 61.8607 68.8611C61.8306 69.007 61.7661 69.1437 61.6727 69.2596C61.5793 69.3756 61.4596 69.4676 61.3236 69.528C60.9926 69.6615 60.6254 69.6753 60.2854 69.567C59.9814 69.5094 59.6958 69.3794 59.4526 69.188V69.188Z" fill="#5A5A5C"/>
<path d="M19.5595 59.1645L19.7158 58.5441C19.8767 58.7158 20.0857 58.8348 20.3154 58.8854C20.4294 58.9208 20.55 58.9289 20.6677 58.9091C20.7854 58.8893 20.8967 58.842 20.9928 58.7713C21.206 58.5905 21.3506 58.3417 21.4023 58.0669V58.0669C21.2994 58.1584 21.1743 58.2213 21.0395 58.2494C20.9048 58.2774 20.765 58.2696 20.6342 58.2268C20.5031 58.1984 20.3797 58.1419 20.2725 58.0611C20.1654 57.9803 20.0771 57.8771 20.0137 57.7587C19.8782 57.5043 19.8489 57.2065 19.9322 56.9305C19.9655 56.768 20.0316 56.6142 20.1266 56.4783C20.2216 56.3425 20.3434 56.2276 20.4844 56.1407C20.6293 56.0602 20.7889 56.0097 20.9536 55.9923C21.1184 55.9749 21.285 55.991 21.4434 56.0395C21.6124 56.0765 21.7702 56.1531 21.9038 56.263C22.0375 56.3729 22.1432 56.513 22.2124 56.6717C22.3599 57.08 22.3682 57.5258 22.236 57.9394C22.1407 58.451 21.8769 58.916 21.4868 59.2601C21.3167 59.392 21.1174 59.4809 20.9058 59.5194C20.6942 59.5579 20.4764 59.5448 20.2709 59.4813C20.0138 59.4281 19.7711 59.3201 19.5595 59.1645V59.1645ZM21.2625 56.5904C21.2002 56.5743 21.1351 56.5729 21.0722 56.5863C21.0093 56.5998 20.9504 56.6277 20.9002 56.6679C20.783 56.765 20.7026 56.8994 20.6725 57.0486C20.6273 57.1926 20.6349 57.348 20.6939 57.4869C20.7226 57.5463 20.7646 57.5983 20.8165 57.6389C20.8685 57.6795 20.9291 57.7075 20.9936 57.7209C21.0536 57.7375 21.1165 57.7404 21.1777 57.7294C21.2389 57.7183 21.2969 57.6936 21.3472 57.657C21.4572 57.5818 21.5335 57.4666 21.5599 57.3359C21.6061 57.1769 21.6008 57.0074 21.5448 56.8517C21.5232 56.787 21.4856 56.7289 21.4353 56.683C21.385 56.637 21.3238 56.6047 21.2575 56.5891L21.2625 56.5904Z" fill="#5A5A5C"/>
<path d="M45.2488 45.153L43.0967 44.61L43.2467 44.0143L43.9409 44.1895L44.4759 42.065L43.7132 42.0362L43.8657 41.4306L45.4283 41.5082L44.7046 44.3822L45.4038 44.5586L45.2488 45.153Z" fill="#5A5A5C"/>
<path d="M46.7678 44.855L48.1513 45.2041L47.9901 45.8444L45.7735 45.2852L45.921 44.6995L47.149 44.0115C47.3429 43.9009 47.5245 43.7697 47.6905 43.6203C47.7975 43.5196 47.8739 43.3906 47.9107 43.2482C47.9907 42.9306 47.8671 42.7093 47.5399 42.6267C47.2237 42.5548 46.8922 42.6028 46.6094 42.7615L46.7631 42.151C47.1065 42.034 47.4766 42.0209 47.8274 42.1133C48.1277 42.1706 48.3958 42.338 48.5793 42.5828C48.6543 42.6972 48.7033 42.8266 48.723 42.962C48.7427 43.0974 48.7325 43.2354 48.6931 43.3665C48.6059 43.6046 48.4694 43.8217 48.2928 44.0036C48.1161 44.1855 47.9032 44.3282 47.6678 44.4223L46.7678 44.855Z" fill="#5A5A5C"/>
<path d="M38.2349 89.8235L38.3507 91.5833L36.8135 90.7153L38.2349 89.8235Z" fill="#5A5A5C"/>
<path d="M37.6831 88.8408L36.9709 89.2837L38.4763 91.7091L39.1885 91.2663L37.6831 88.8408Z" fill="#5A5A5C"/>
<path d="M48.7442 47.2118C48.7442 47.2118 53.3542 58.2258 44.9198 75.7201C44.9198 75.7201 44.8131 77.0235 45.9562 75.9816C47.0993 74.9397 55.1028 59.5961 53.3393 49.9074C51.5757 40.2187 47.9353 44.1622 48.7442 47.2118Z" fill="white"/>
<path d="M54.0695 51.5699C54.0695 51.5699 57.614 58.7305 52.7673 70.7107C52.7673 70.7107 52.7532 71.5835 53.4666 70.8449C54.1799 70.1063 58.8254 59.5746 57.2378 53.1875C55.6502 46.8005 53.4023 49.5697 54.0695 51.5699Z" fill="white"/>
<path d="M73.3502 48.3208C73.3067 48.3877 73.2432 48.4391 73.1687 48.4678C73.0943 48.4964 73.0127 48.5007 72.9356 48.4802C68.8257 47.3052 65.0879 45.0894 62.0831 42.0465C58.4822 38.377 55.9763 35.4483 54.6569 31.4517C54.63 31.3738 54.6292 31.2893 54.6547 31.2109C54.6801 31.1326 54.7304 31.0646 54.7979 31.0175C57.3688 29.185 61.0968 28.7055 64.7401 29.7145C67.2079 30.3921 69.4625 31.6877 71.2915 33.4791C75.826 37.9649 75.8416 44.6258 73.3502 48.3208Z" fill="#5A5A5C"/>
<path d="M72.7473 49.045C68.5519 47.8377 64.7351 45.5752 61.6606 42.4732C57.7564 38.5001 55.3881 35.6114 54.091 31.6521C54.027 31.4549 54.0269 31.2425 54.0908 31.0453C54.1546 30.8481 54.2792 30.6761 54.4466 30.554C57.1691 28.6014 61.0608 28.0999 64.8863 29.1601C67.4512 29.8721 69.7927 31.226 71.6904 33.0941C73.878 35.2417 75.2403 38.0917 75.5383 41.1443C75.8379 43.7615 75.2397 46.4029 73.842 48.635L73.7587 48.7565L73.7339 48.7502C73.6165 48.878 73.4673 48.9722 73.3016 49.0232C73.1358 49.0741 72.9595 49.08 72.7907 49.0401L72.7473 49.045ZM55.2535 31.4333C56.4892 35.0921 58.761 37.8614 62.4932 41.6591C65.3923 44.5818 68.9808 46.7255 72.9269 47.892V47.892C75.2084 44.3605 75.0754 38.0818 70.8528 33.9492C69.0965 32.2226 66.9316 30.9699 64.5604 30.3079C61.1539 29.3429 57.6766 29.7694 55.256 31.4234L55.2535 31.4333Z" fill="#5A5A5C"/>
<path d="M61.0514 40.5982L64.3547 37.1767L66.238 39.4996L63.1183 42.8829L61.0514 40.5982Z" fill="white"/>
<path d="M72.5969 48.1307C72.5969 48.1307 67.0444 37.0901 55.2666 31.3152C55.2666 31.3152 63.4895 26.3054 71.0555 33.8947C71.0593 33.8798 76.8669 40.619 72.5969 48.1307Z" fill="#5A5A5C"/>
<path d="M64.0706 37.1529L59.8836 33.8212C57.9486 32.6044 56.1818 31.6413 54.9732 31.2888C53.7646 30.9364 56.9558 36.1074 56.9558 36.1074L60.838 40.5447L61.2358 40.1172L61.1442 39.999L62.0492 38.9393L64.0706 37.1529ZM56.7052 32.2854C56.7052 32.2854 59.0129 33.1739 59.344 33.8487C59.6171 34.398 60.5182 38.5266 60.9066 39.7068C59.9714 38.4572 57.0957 33.6879 56.7052 32.2854V32.2854Z" fill="#5A5A5C"/>
<path d="M72.4346 44.9062C72.5544 45.1423 72.6557 45.3896 72.778 45.6369C72.9003 45.8842 72.9693 46.1339 73.0544 46.3824C73.2216 46.8846 73.326 47.4057 73.3651 47.9336C73.3651 47.9336 73.3651 47.9336 73.3651 47.9336C73.3947 48.0435 73.4177 48.1551 73.434 48.2677C75.8721 44.5541 75.8229 37.9639 71.3093 33.5414C69.4804 31.75 67.2257 30.4543 64.7579 29.7768V29.7768C64.6389 29.7467 59.7525 29.5697 57.037 31.1176C57.7208 31.3879 58.3871 31.7006 59.0321 32.0538C59.405 32.2482 59.7519 32.4413 60.0802 32.6456C60.77 32.1835 61.5475 31.8686 62.3642 31.7204C63.1809 31.5723 64.0193 31.5941 64.8272 31.7845C66.8541 32.3223 66.8008 33.56 65.6611 33.4994C64.5214 33.4389 62.6782 33.4912 62.5989 34.0783C62.5827 34.1428 62.5677 34.2023 62.5775 34.2682C64.0113 35.2613 65.371 36.3577 66.6455 37.5488C67.1321 38.0041 67.6086 38.4781 68.0666 38.9632C68.1105 38.9291 68.1413 38.8809 68.1537 38.8268C68.2787 38.3304 67.8985 34.8136 68.8423 34.8353C69.7862 34.857 71.2662 35.9748 71.707 38.9156C71.9811 40.8008 71.54 41.8614 70.8483 42.3257C71.4436 43.143 71.974 44.0059 72.4346 44.9062V44.9062Z" fill="#5A5A5C"/>
<path d="M72.6185 48.6747C72.0983 46.3421 69.1551 42.49 64.9394 38.6232C60.8475 34.872 56.7312 32.181 54.4648 31.757L54.6629 30.635C57.6894 31.1822 62.3499 34.6862 65.7287 37.7718C70.1796 41.8564 73.1895 45.8413 73.76 48.4348L72.6185 48.6747Z" fill="#5A5A5C"/>
<path d="M63.3027 43.4892L62.4597 42.6483L65.7391 39.4055C65.2661 38.98 64.5442 38.3492 64.0935 37.9609L61.112 41.0888L60.2615 40.2777L64.0136 36.3306L64.4457 36.7089L64.7887 37.0013C65.7186 37.8114 66.7352 38.6961 67.0137 38.9933L67.4098 39.41L63.3027 43.4892Z" fill="#5A5A5C"/>
<path d="M66.736 39.9686C66.4221 40.0002 66.0698 40.0592 65.731 40.1268C65.3923 40.1944 65.0548 40.2782 64.721 40.3682C64.0428 40.5541 63.3868 40.8134 62.7648 41.1416C63.0218 40.8914 63.2953 40.6588 63.5835 40.4454C63.8753 40.2287 64.1759 40.0195 64.4863 39.8338C64.7968 39.6482 65.1072 39.4626 65.4387 39.2981C65.7702 39.1336 66.0892 38.9766 66.4542 38.8258L66.736 39.9686Z" fill="#5A5A5C"/>
<path d="M70.1969 43.3179C68.2725 41.0955 66.432 39.1688 66.432 39.1688L66.2378 39.4999L63.1181 42.8832C63.6495 43.4989 64.2531 44.0483 64.9159 44.5194C65.996 45.2775 69.3493 47.4381 72.5548 48.3842L73.1527 48.3767C72.4457 46.5422 71.4476 44.834 70.1969 43.3179V43.3179ZM71.2176 46.5528C70.8065 46.8661 68.3265 45.2585 66.8323 43.8204C68.1783 44.2761 71.63 46.2345 71.2176 46.5528Z" fill="#5A5A5C"/>
</g>
<defs>
<clipPath id="clip0_0_677">
<rect width="65" height="90" fill="white" transform="matrix(0.969612 0.244646 -0.244184 0.969729 22.9014 0.928955)"/>
</clipPath>
</defs>
</svg>
