<svg width="131" height="112" viewBox="0 0 131 112" fill="none" xmlns="http://www.w3.org/2000/svg">
<g clip-path="url(#clip0_0_812)">
<path d="M28.7151 22.834C28.7151 22.834 28.7123 22.8192 28.7151 22.834C28.5726 22.739 28.2431 22.8795 28.0182 22.9997C27.8894 23.0553 27.7634 23.1257 27.6702 23.2051C23.4625 25.9059 19.5774 29.3108 16.1709 32.9448C13.2404 36.0726 10.5936 39.5441 8.73463 43.3995C6.97305 47.0367 5.67652 51.473 6.30855 55.5355C6.45837 56.5489 6.96636 57.5696 7.70973 58.284C9.16085 59.6891 11.2227 59.4429 12.998 58.8384C12.9038 60.8341 13.2683 63.6762 15.2488 64.6108C17.1786 65.5246 19.619 64.2699 21.2543 63.2632C23.0006 62.1891 24.2952 60.8651 25.2832 59.0794C27.4958 55.0482 28.2017 50.2052 28.6807 45.7127C29.205 40.8129 29.3026 35.8731 29.2031 30.9562C29.1477 28.2689 29.0596 25.5726 28.8341 22.8876C28.8284 22.8581 28.7927 22.8343 28.7151 22.834Z" fill="#5B5B5D"/>
<path d="M104.48 44.6541C101.822 36.6153 95.4232 29.5309 87.443 26.3709C80.3375 23.5626 72.6973 24.3991 65.2979 25.3576C61.8314 25.7993 58.3108 26.2822 54.8172 26.0239C53.8566 25.9495 52.5613 25.9092 51.7912 25.5372C51.1935 25.2544 50.6292 24.9038 50.0315 24.6211C44.5518 21.9577 38.1837 20.2329 32.0474 21.1459C28.2933 21.7047 24.8872 23.499 22.4007 26.3569C19.4953 29.6946 17.8527 34.1059 16.907 38.3515C15.0646 46.6953 16.5542 55.3439 20.2765 62.9468C24.7151 72.0052 31.9669 79.4913 40.0823 85.4305C42.4145 87.1401 44.8491 88.7379 47.3236 90.2207C48.0533 94.387 48.7801 98.5385 49.4948 102.708C49.5972 103.316 49.6997 103.925 49.8142 104.516C49.8628 104.767 50.7949 104.694 50.9743 104.659C51.961 104.468 52.9327 104.28 53.9194 104.089C53.9344 104.086 54.1287 104.048 54.1173 103.989C53.9859 100.749 53.8517 97.4945 53.7203 94.2547C54.3842 96.6402 55.048 99.0257 55.7119 101.411C55.8798 102.038 56.0599 102.647 56.2278 103.273C56.2943 103.536 57.1935 103.454 57.3879 103.417C58.554 103.191 59.7052 102.968 60.8713 102.742C60.8862 102.739 61.0806 102.701 61.0691 102.642C60.6636 100.068 60.258 97.495 59.8375 94.9244C65.7263 95.7763 71.8501 94.5591 77.4851 92.9001C82.8118 91.3314 87.982 89.1952 92.9697 86.7572C93.5362 86.4788 94.1027 86.2004 94.6514 85.9101C94.7077 88.8425 94.7611 91.7602 94.8174 94.6926C94.8184 94.9377 95.828 94.8647 95.9775 94.8357C96.5905 94.717 97.2034 94.5982 97.8313 94.4765C98.1004 94.4244 98.6587 94.4235 98.8664 94.2147C99.035 94.044 99.1193 93.5985 99.2045 93.398C99.8786 91.6731 100.505 89.9421 101.081 88.1903C103.224 81.7197 104.879 75.0525 105.786 68.2849C106.836 60.4933 106.973 52.2346 104.48 44.6541Z" fill="#B5C0C6"/>
<path d="M68.2826 43.7272C66.5713 42.0199 64.6771 40.4093 62.6677 39.0051C64.4725 39.5139 66.3833 39.8488 68.1789 39.6695C69.4875 39.5386 70.6632 38.8816 70.4574 37.4191C70.2328 35.6997 69.0677 34.0093 67.962 32.7058C65.2716 29.548 61.4501 27.4371 57.6661 25.8401C53.8999 24.2551 49.9569 23.1182 45.955 22.2379C43.8155 21.7633 41.6547 21.3389 39.4657 21.0885C39.2035 21.0167 38.9494 21.0659 38.9026 21.3049C38.1087 26.3336 37.72 31.4524 37.5256 36.5336C37.3472 41.1364 37.3774 45.7755 37.7572 50.3775C38.1411 54.8407 38.8262 59.3376 40.2837 63.5775C41.5284 67.1994 43.4153 70.7736 46.4639 73.2182C49.3671 75.553 53.4567 76.6462 57.1752 76.0636C64.6121 74.8986 62.5245 65.6453 60.9681 60.7348C60.0253 57.7902 58.8582 54.889 57.5382 52.0789C59.5558 54.6466 61.9408 57.1891 64.9334 58.4642C66.4237 59.1105 68.1321 59.362 69.6752 58.6798C71.389 57.9185 72.7288 56.1873 73.1913 54.4114C74.2162 50.3343 70.9561 46.3977 68.2826 43.7272Z" fill="#5B5B5D"/>
<path d="M17.0908 41.0752C17.0908 41.0752 16.0449 71.4622 28.3129 98.9936L31.2581 98.4229C31.2581 98.4229 24.5484 70.9183 29.9114 61.3712L17.0908 41.0752Z" fill="#B5C0C6"/>
<path d="M19.8524 40.2642C20.5212 40.1347 20.9147 39.2623 20.7313 38.3157C20.5478 37.3691 19.857 36.7068 19.1882 36.8364C18.5194 36.966 18.1259 37.8384 18.3093 38.785C18.4927 39.7315 19.1836 40.3938 19.8524 40.2642Z" fill="white"/>
<path d="M29.3174 40.3465C30.5724 40.1033 31.395 38.9007 31.1547 37.6604C30.9144 36.42 29.7021 35.6117 28.4471 35.8549C27.1921 36.098 26.3695 37.3006 26.6098 38.541C26.8501 39.7813 28.0624 40.5897 29.3174 40.3465Z" fill="white"/>
<path d="M29.2231 38.8933C29.1032 38.5946 28.9187 38.5231 28.8112 38.5286C28.7008 38.5193 28.5065 38.557 28.3608 38.8458C28.2698 39.0167 28.2173 39.2262 28.2005 39.4594C28.154 40.0203 28.3595 40.4403 28.6878 40.4534C28.7205 40.4624 28.7504 40.4566 28.7803 40.4508C29.0494 40.3986 29.2734 40.0333 29.2985 39.5226C29.3154 39.2894 29.2874 39.0648 29.2231 38.8933Z" fill="#5B5B5D"/>
<path d="M19.6794 38.6421C19.3661 38.6262 19.1002 39.015 19.0687 39.5729C19.0518 39.8061 19.0798 40.0307 19.1441 40.2022C19.264 40.5009 19.4485 40.5724 19.556 40.5669C19.5859 40.5611 19.6187 40.5701 19.6486 40.5643C19.7532 40.544 19.8942 40.4707 20.0064 40.2497C20.0974 40.0788 20.1499 39.8693 20.1668 39.6361C20.1982 39.0781 19.9928 38.6581 19.6794 38.6421Z" fill="#5B5B5D"/>
<path d="M99.1016 37.234C100.47 40.3721 102.149 43.4347 104.048 46.2706C105.856 48.9557 109.616 54.4356 113.583 52.3333C114.666 51.7556 115.447 50.7457 116.038 49.7115C117.053 47.9052 117.64 45.8906 118.107 43.8992C118.203 43.5127 117.437 43.7224 117.366 43.9968C116.957 45.7315 116.459 47.4837 115.673 49.1077C115.196 50.0892 114.578 51.1441 113.645 51.7695C112.179 52.7739 110.455 51.9583 109.2 51.0057C107.414 49.6348 106.03 47.7722 104.788 45.9279C103.544 44.0689 102.437 42.1217 101.4 40.1305C100.851 39.0566 100.316 37.9797 99.8239 36.8794C99.7218 36.5926 98.9816 36.9353 99.1016 37.234Z" fill="#B5C0C6"/>
<path d="M119.669 37.5414C119.507 37.588 119.476 37.7473 119.442 37.8919C119.368 38.1515 119.312 38.4229 119.223 38.6854C119.097 39.1544 118.953 39.6116 118.809 40.0688C118.867 39.1683 118.91 38.2708 118.894 37.3849C118.887 37.1103 118.954 36.2542 118.542 36.2113C118.322 36.1928 118.204 36.3842 118.095 36.5433C117.822 36.9793 117.669 37.4689 117.531 37.9556C117.457 38.2152 117.386 38.4895 117.327 38.7462C117.322 38.6399 117.332 38.5307 117.327 38.4243C117.32 38.2265 117.299 36.7588 116.751 37.371C116.597 37.5387 116.544 37.8249 116.473 38.0225C116.329 38.4797 116.218 38.9458 116.11 39.4267C115.829 40.5389 115.699 41.7904 115.902 42.9162C116.03 43.5811 116.317 44.2613 116.966 44.565C117.495 44.815 118.178 44.8205 118.677 44.5094C119.814 43.8138 119.969 41.9748 120.051 40.7939C120.092 40.1267 120.098 39.4358 120.076 38.7654C120.067 38.476 120.072 38.1837 120.018 37.9029C120.013 37.7198 119.914 37.4478 119.669 37.5414Z" fill="#5B5B5D"/>
<path d="M34.6105 17.154C34.1967 17.7401 33.7978 18.3233 33.384 18.9093C33.2914 18.1914 33.1839 17.4764 33.0913 16.7585C33.0713 16.6551 32.7344 16.5977 32.6918 16.698C32.3969 17.3376 32.1021 17.9773 31.8072 18.617C31.6062 18.38 31.4201 18.1401 31.2162 17.8883C31.1748 17.835 30.7874 17.7568 30.8103 17.875C30.8784 18.3064 30.9643 18.7496 31.0323 19.181C31.157 19.9847 31.1109 20.8674 31.9281 21.3223C32.3114 21.5393 32.7891 21.5233 33.1613 21.2826C33.6146 20.9802 33.8967 20.4349 34.1305 19.9604C34.3828 19.421 34.5816 18.8459 34.7505 18.2766C34.8548 17.9345 34.9442 17.5953 35.0158 17.2441C35.0349 17.1025 34.6589 17.0833 34.6105 17.154Z" fill="#5B5B5D"/>
<path d="M88.8759 85.4808C88.9274 85.7467 89.6946 95.4705 89.6946 95.4705L92.1016 95.0041L94.8286 81.8593L88.8759 85.4808Z" fill="#92A0A8"/>
<path d="M17.2322 51.0732C18.9556 51.3219 23.5268 53.3795 26.1565 51.2603L17.2322 51.0732Z" fill="white"/>
<path d="M23.7085 55.8431L17.7809 55.3513C17.7809 55.3513 20.3797 57.3159 23.7085 55.8431Z" fill="white"/>
<path d="M22.6745 59.0634L18.0266 59.4121C18.0117 59.415 20.4737 60.5936 22.6745 59.0634Z" fill="white"/>
<path d="M22.4828 62.3965L18.7303 63.1235C18.7303 63.1235 20.2822 63.9282 22.4828 62.3965Z" fill="white"/>
<path d="M23.2497 66.3564L18.9739 67.1848C19.4972 67.0834 21.5873 67.7838 23.2497 66.3564Z" fill="white"/>
<path d="M22.152 70.6933L19.6934 70.8933C19.6934 70.8933 20.4231 71.8573 22.152 70.6933Z" fill="white"/>
<path d="M22.4983 73.9217L20.3604 74.3359C20.3604 74.3359 21.0356 75.0188 22.4983 73.9217Z" fill="white"/>
<path d="M23.0619 76.8324L20.924 77.2466C21.7164 77.0931 22.0858 77.5588 23.0619 76.8324Z" fill="white"/>
<path d="M24.0605 79.1067L21.3844 79.6252C21.3844 79.6252 23.6742 79.9953 24.0605 79.1067Z" fill="white"/>
<path d="M24.7241 82.5347L22.5863 82.9489C22.5713 82.9518 23.5334 83.5944 24.7241 82.5347Z" fill="white"/>
<path d="M25.8105 85.3443L23.6726 85.7585C23.6726 85.7585 25.1729 86.2969 25.8105 85.3443Z" fill="white"/>
<path d="M26.3741 88.255L24.2362 88.6692C24.2362 88.6692 25.4674 89.2597 26.3741 88.255Z" fill="white"/>
<path d="M26.9391 91.1661L25.2878 91.2097C25.2878 91.2097 26.0325 92.1708 26.9391 91.1661Z" fill="white"/>
<path d="M28.0406 93.972L26.4409 94.282C26.4409 94.282 27.6572 94.8754 28.0406 93.972Z" fill="white"/>
<path d="M31.4546 65.0117C31.259 64.4824 30.8264 64.091 30.229 64.1301C29.2941 64.1886 28.7601 64.8746 28.3984 65.6499C27.5628 67.4214 26.5319 68.9855 25.1561 70.3711C24.9093 70.6182 23.3093 72.0473 24.0473 72.3336C24.5323 72.5155 25.4739 72.0112 25.8903 71.8385C27.1814 71.2971 28.4312 70.7023 29.4898 69.7614C30.702 68.6527 32.1 66.7416 31.4546 65.0117Z" fill="white"/>
<path d="M52.3944 102.376C52.154 102.576 51.9991 102.897 51.8919 103.224C51.6549 102.642 51.2684 102.088 50.7137 102.747C50.2976 103.242 50.1653 104.08 50.0527 104.7C50.0434 104.732 50.0613 104.744 50.0762 104.741C50.094 104.753 50.1268 104.762 50.1866 104.75C51.4061 104.56 52.6107 104.373 53.8303 104.182C53.9051 104.168 54.1058 104.083 54.0679 103.968C53.8694 103.424 53.3144 101.6 52.3944 102.376Z" fill="#5B5B5D"/>
<path d="M58.9837 100.762C58.6172 101.032 58.4547 101.554 58.364 102.047C58.1197 101.266 57.6143 99.9387 56.9231 100.854C56.4068 101.552 56.2812 102.665 56.161 103.486C56.161 103.486 56.161 103.486 56.1788 103.497C56.1788 103.497 56.1816 103.512 56.2115 103.506C57.8284 103.285 59.4602 103.061 61.077 102.84C61.1069 102.834 61.2357 102.778 61.23 102.749C60.9304 102.163 60.0019 100.013 58.9837 100.762Z" fill="#5B5B5D"/>
<path d="M91.3088 93.5481C91.0498 93.8129 90.8943 94.211 90.7836 94.6003C90.7085 94.2929 90.5857 93.9795 90.3898 93.8488C90.1967 93.7329 90.0081 93.8001 89.905 93.9887C89.6506 94.4366 89.6391 95.098 89.5962 95.5969C89.5927 95.6589 89.7686 95.6861 89.8405 95.6569C90.6328 95.5033 91.4252 95.3498 92.2175 95.1963C92.2325 95.1934 92.2923 95.1818 92.2866 95.1523C92.235 94.8863 92.0855 92.7538 91.3088 93.5481Z" fill="#5B5B5D"/>
<path d="M97.7482 92.3467C97.3306 92.6729 97.0427 93.1885 96.8118 93.6778C96.6683 93.3377 96.5099 93.0005 96.2974 92.7044C96.1912 92.5564 96.0464 92.3698 95.8648 92.313C95.5521 92.2203 95.3053 92.4674 95.1838 92.7209C94.8441 93.3692 94.7894 94.2077 94.7416 94.9221C94.7445 94.9368 94.7445 94.9368 94.7474 94.9516C94.7502 94.9664 94.7652 94.9635 94.8129 94.9696C94.8129 94.9696 94.8129 94.9696 94.8278 94.9667C96.0859 94.8149 97.3589 94.6602 98.6169 94.5085C98.6468 94.5027 98.7963 94.4737 98.7998 94.4117C98.7922 93.892 98.8781 91.4532 97.7482 92.3467Z" fill="#5B5B5D"/>
<path d="M26.4465 28.4243C26.4981 28.6903 29.9557 30.7644 35.3708 28.6114L26.4465 28.4243Z" fill="white"/>
</g>
<defs>
<clipPath id="clip0_0_812">
<rect width="115" height="90" fill="white" transform="translate(0.467346 22.6484) rotate(-10.9656)"/>
</clipPath>
</defs>
</svg>
