<svg width="135" height="135" viewBox="0 0 135 135" fill="none" xmlns="http://www.w3.org/2000/svg">
<path d="M94.2441 71.3719C98.1055 57.1175 89.6923 42.4294 75.4522 38.5642C61.2121 34.6989 46.462 43.1977 42.6527 57.4663C40.7605 64.555 41.8921 71.7364 45.2726 77.6381C47.9029 82.2302 49.3229 87.4178 49.3164 92.7082L49.3166 100.969L66.2145 105.555L70.1567 98.799C72.8753 94.1327 76.8442 90.3238 81.55 87.667C87.5702 84.2889 92.294 78.5709 94.2441 71.3719Z" fill="#FFF405"/>
<path d="M59.3802 113.388L51.1462 111.153C48.8141 110.52 47.2741 108.254 47.7373 106.028L49.3361 97.3896L68.0246 102.336L64.9088 110.689C64.1755 112.828 61.7123 114.021 59.3802 113.388Z" fill="#59595B"/>
<path d="M65.346 105.558C60.0748 104.365 54.9082 102.682 49.6371 101.49C49.161 101.388 49.02 102.064 49.4689 102.213C54.6342 103.797 59.9596 104.893 65.1249 106.477C65.7076 106.649 65.9393 105.691 65.346 105.558Z" fill="#808183"/>
<path d="M64.7304 107.827C59.4593 106.634 54.2927 104.951 49.0215 103.759C48.5455 103.657 48.4045 104.333 48.8534 104.482C54.0186 106.066 59.3441 107.162 64.5093 108.746C65.0921 108.918 65.3237 107.96 64.7304 107.827Z" fill="#808183"/>
<path d="M81.1095 26.0005C80.6573 27.6698 78.1533 33.4024 77.072 33.1089C75.9776 32.8118 76.7227 26.6018 77.1749 24.9325C77.6271 23.2632 78.8769 22.1604 79.9583 22.4539C81.0361 22.7605 81.5581 24.3442 81.1095 26.0005Z" fill="#FFF405"/>
<path d="M103.201 41.868C101.644 42.6074 96.4604 46.1004 96.9378 47.1261C97.4318 48.1422 103.399 46.3036 104.956 45.5642C106.513 44.8248 107.376 43.3931 106.882 42.3769C106.417 41.3549 104.762 41.1155 103.201 41.868Z" fill="#FFF405"/>
<path d="M105.563 71.1539C103.852 70.9134 97.8516 69.1587 98.0146 68.0409C98.1645 66.9196 104.43 66.8701 106.128 67.107C107.839 67.3475 109.094 68.4443 108.932 69.5621C108.772 70.6668 107.265 71.3778 105.563 71.1539Z" fill="#FFF405"/>
<path d="M52.8793 26.0666C53.9031 27.4506 56.8852 32.9642 55.9745 33.641C55.0639 34.3179 50.6354 29.9097 49.5986 28.5223C48.5749 27.1384 48.4671 25.471 49.3777 24.7942C50.2884 24.1173 51.852 24.6958 52.8793 26.0666Z" fill="#FFF405"/>
<path d="M33.788 47.0798C35.3861 47.7376 41.4501 49.2575 41.8736 48.2105C42.3101 47.1669 36.928 43.956 35.3429 43.3017C33.7449 42.6439 32.1079 42.9556 31.6844 44.0027C31.2644 45.0368 32.203 46.4256 33.788 47.0798Z" fill="#FFF405"/>
<path d="M76.0336 80.5264C75.3658 79.6871 74.9394 78.7313 74.7141 77.7042C75.9666 76.7981 76.7909 75.3557 77.3654 73.9576C77.7099 73.0991 77.9761 72.2193 78.2294 71.3361C78.4756 70.4788 78.5526 69.7297 77.9809 69.0005C77.4567 68.3542 76.4838 68.5381 75.8615 68.8733C75.1434 69.2524 74.6331 70.0519 74.2173 70.7091C73.3787 72.0495 72.9512 73.6275 72.8351 75.1921C72.785 75.7385 72.8035 76.2895 72.8517 76.8346C72.4092 77.0225 71.9322 77.1311 71.4338 77.1638C69.9031 77.2383 69.0573 76.1267 68.7309 74.7501C68.6797 74.5262 68.632 74.2892 68.6008 74.0427C68.7993 73.7746 68.9848 73.5029 69.1537 73.2408C70.0244 71.9371 70.6877 70.521 71.2112 69.0531C71.6511 67.8424 72.0799 66.3628 71.0957 65.2976C70.7814 64.9603 70.289 65.0226 69.9662 65.285C67.5633 67.2369 66.7984 70.4734 66.991 73.4798C66.4935 74.1288 65.938 74.734 65.3599 75.3191C64.712 75.9553 63.5638 76.8897 62.5864 76.4704C61.6872 76.0723 61.2495 74.6934 60.9819 73.8228C60.788 73.1961 60.6698 72.548 60.6239 71.8915C60.8259 71.6104 61.0315 71.3162 61.2205 71.0314C61.9671 69.876 62.5489 68.6059 63.0135 67.304C63.405 66.2202 63.8514 64.6753 62.7977 63.8153C62.4883 63.5633 61.9636 63.4349 61.6682 63.8027C59.9734 65.8768 59.0619 68.4155 59.0446 71.1128C59.0459 71.2112 59.0507 71.2965 59.0556 71.3818C57.8208 73.0488 56.2305 74.4792 54.4763 75.5851C53.6838 76.084 54.3865 77.3108 55.198 76.845C56.7453 75.9349 58.1265 74.8118 59.3215 73.4981C59.4359 74.0052 59.5834 74.4932 59.7606 74.9753C60.2585 76.2865 60.9696 77.5856 62.372 78.0362C63.6798 78.4752 65.0649 77.6471 66.0465 76.8635C66.5124 76.486 66.9628 76.0622 67.3647 75.6113C67.7335 76.8314 68.449 77.9077 69.6799 78.4238C70.8065 78.9116 72.0519 78.8576 73.1927 78.4672C73.4915 79.5844 73.9879 80.6431 74.6535 81.5938C75.3489 82.6926 76.8449 81.5586 76.0336 80.5264ZM70.0627 67.3553C69.9488 67.9824 69.597 68.7129 69.4685 69.0841C69.2197 69.7446 68.9152 70.4039 68.5787 71.0266C68.7827 69.6539 69.2508 68.3389 70.0627 67.3553ZM75.0421 72.879C75.2673 72.2541 75.6098 71.6611 75.9808 71.1177C76.1462 70.8686 76.3471 70.6431 76.5706 70.4378C76.5871 70.4283 76.6605 70.3642 76.7302 70.3131C76.7327 70.3558 76.728 70.4245 76.7068 70.5028C76.3611 72.089 75.7715 73.749 74.8867 75.1049C74.7721 75.2698 74.6575 75.4347 74.5334 75.583C74.5546 74.6787 74.7368 73.7482 75.0421 72.879Z" fill="#ACAFBC"/>
<path d="M78.5343 77.1308C73.5303 84.7608 68.3805 92.3093 63.0435 99.723C62.4102 100.615 63.759 101.625 64.4053 100.737C69.7328 93.3064 74.8566 85.7509 79.7219 78.0132C80.2026 77.2196 79.0576 76.3348 78.5343 77.1308Z" fill="#ACAFBC"/>
<path d="M53.7406 69.8406C53.6154 78.977 53.3363 88.1135 52.812 97.2256C52.7544 98.316 54.4382 98.451 54.4958 97.3606C54.9975 88.2284 55.26 79.1014 55.2053 69.9582C55.198 69.0041 53.7498 68.8771 53.7406 69.8406Z" fill="#ACAFBC"/>
</svg>
