<svg width="70" height="71" viewBox="0 0 70 71" fill="none" xmlns="http://www.w3.org/2000/svg">
<path d="M50.4282 49.4251C50.5315 49.3533 50.6391 49.2881 50.7506 49.23C54.4204 47.9983 57.6571 52.0417 57.6571 52.0417C56.2882 51.1631 55.6533 51.1367 53.7703 51.8855C51.8873 52.6344 50.3931 50.6093 50.3931 50.6093C50.276 50.5555 50.1677 50.4842 50.072 50.3979C50.2591 50.1029 50.3806 49.7711 50.4282 49.4251V49.4251Z" fill="url(#paint0_linear_0_999)"/>
<path d="M48.5317 50.0786C48.7948 49.6713 48.9283 49.1938 48.9146 48.7092C49.2542 48.8202 49.5879 48.9484 49.9144 49.0933L49.5396 50.3291C49.2032 50.2558 48.8711 50.165 48.5317 50.0786Z" fill="#4CD0C0"/>
<path d="M47.762 49.8888L47.7735 49.8263L47.7326 49.7672C46.0114 47.0851 44.5648 44.1262 42.9728 41.4204C41.3808 38.7146 39.7366 35.9175 38.0154 33.2353C37.9122 33.0701 26.1863 14.6254 26.0907 14.4659C25.8125 13.9677 25.502 13.4882 25.1613 13.0305C25.0237 12.9219 24.8517 12.8663 24.6766 12.8737C24.5014 12.8811 24.3347 12.951 24.2068 13.0708L24.1287 13.1211C23.8597 13.1874 23.6122 13.3214 23.4096 13.5102C23.2069 13.699 23.0559 13.9365 22.9708 14.2L22.9594 14.2625L22.9961 14.3208C24.4805 16.7444 37.663 37.4828 39.1471 39.8848C41.3788 43.4695 43.8249 47.059 46.0538 50.7292L46.0972 50.7974L46.1639 50.8096C46.528 50.8978 46.912 50.8469 47.2405 50.6669C47.3831 50.5879 47.5047 50.4762 47.5954 50.3409C47.6861 50.2056 47.7432 50.0506 47.762 49.8888ZM39.3313 39.7723C37.8585 37.4024 24.7079 16.6785 23.2185 14.2583C23.307 14.04 23.4459 13.8458 23.6239 13.6914C23.8018 13.537 24.0137 13.4269 24.2424 13.37L24.3303 13.3129C24.5843 13.1486 24.7598 13.0602 24.9797 13.1995C25.3074 13.6405 25.6083 14.1009 25.8807 14.5781L33.4654 26.5149L37.8118 33.3358C39.526 35.9959 41.1593 38.7728 42.7377 41.4562C42.7487 41.475 42.7597 41.4937 42.7708 41.5125C44.3594 44.2134 45.8057 47.1507 47.5201 49.8229C47.3021 50.4716 46.9471 50.6002 46.1987 50.5492C43.9826 46.9028 41.5627 43.3353 39.3313 39.7723Z" fill="url(#paint1_linear_0_999)"/>
<path d="M39.3313 39.7723C37.8585 37.4024 24.7079 16.6785 23.2185 14.2583C23.307 14.04 23.4459 13.8458 23.6239 13.6914C23.8018 13.537 24.0137 13.4269 24.2424 13.37L24.3303 13.3129C24.5843 13.1486 24.7598 13.0602 24.9797 13.1995C25.3074 13.6405 25.6083 14.1009 25.8807 14.5781L33.4654 26.5149L37.8118 33.3358C39.526 35.9959 41.1593 38.7728 42.7377 41.4562L42.7708 41.5125C44.3594 44.2134 45.8057 47.1507 47.5201 49.8229C47.3021 50.4716 46.9471 50.6002 46.1987 50.5492C43.9826 46.9028 41.5627 43.3353 39.3313 39.7723Z" fill="url(#paint2_linear_0_999)"/>
<path d="M42.7708 41.5125C44.3594 44.2134 45.8057 47.1507 47.5201 49.8229C47.3021 50.4716 46.9471 50.6002 46.1987 50.5492C43.9826 46.9028 41.5627 43.3353 39.3313 39.7723C37.8585 37.4024 24.7079 16.6785 23.2185 14.2583C23.307 14.04 23.4459 13.8458 23.6239 13.6914C23.8018 13.537 24.0137 13.4269 24.2424 13.37L24.3303 13.3129C24.5843 13.1486 24.7598 13.0602 24.9797 13.1995C25.3074 13.6405 25.6083 14.1009 25.8807 14.5781L33.4654 26.5149L37.8118 33.3358C39.526 35.9959 41.1593 38.7728 42.7377 41.4562M42.7708 41.5125L42.7377 41.4562M42.7708 41.5125C42.7597 41.4937 42.7487 41.475 42.7377 41.4562M47.762 49.8888L47.7735 49.8263L47.7326 49.7672C46.0114 47.0851 44.5648 44.1262 42.9728 41.4204C41.3808 38.7146 39.7366 35.9175 38.0154 33.2353C37.9122 33.0701 26.1863 14.6254 26.0907 14.4659C25.8125 13.9677 25.502 13.4882 25.1613 13.0305C25.0237 12.9219 24.8517 12.8663 24.6766 12.8737C24.5014 12.8811 24.3347 12.951 24.2068 13.0708L24.1287 13.1211C23.8597 13.1874 23.6122 13.3214 23.4096 13.5102C23.2069 13.699 23.0559 13.9365 22.9708 14.2L22.9594 14.2625L22.9961 14.3208C24.4805 16.7444 37.663 37.4828 39.1471 39.8848C41.3788 43.4695 43.8249 47.059 46.0538 50.7292L46.0972 50.7974L46.1639 50.8096C46.528 50.8978 46.912 50.8469 47.2405 50.6669C47.3831 50.5879 47.5047 50.4762 47.5954 50.3409C47.6861 50.2056 47.7432 50.0506 47.762 49.8888Z" stroke="url(#paint3_linear_0_999)" stroke-width="4" stroke-miterlimit="10"/>
<mask id="path-5-inside-1_0_999" fill="white">
<path d="M7.63933 37.0583L7.37272 36.9776C7.43615 36.8416 7.46965 36.6936 7.47096 36.5436C7.47227 36.3936 7.44137 36.2451 7.38033 36.1081L7.62534 36.0389C7.70295 36.1972 7.74446 36.3707 7.74688 36.547C7.7493 36.7233 7.71257 36.8979 7.63933 37.0583Z"/>
</mask>
<path d="M7.63933 37.0583L7.37272 36.9776C7.43615 36.8416 7.46965 36.6936 7.47096 36.5436C7.47227 36.3936 7.44137 36.2451 7.38033 36.1081L7.62534 36.0389C7.70295 36.1972 7.74446 36.3707 7.74688 36.547C7.7493 36.7233 7.71257 36.8979 7.63933 37.0583Z" fill="#4CD0C0"/>
<path d="M7.63933 37.0583L8.54924 37.4736L8.18626 38.2687L7.34941 38.0152L7.63933 37.0583ZM7.37272 36.9776L7.0828 37.9344L5.9788 37.6L6.46624 36.5549L7.37272 36.9776ZM7.38033 36.1081L6.46671 36.5148L5.99677 35.4601L7.10813 35.146L7.38033 36.1081ZM7.62534 36.0389L7.35313 35.0768L8.15607 34.8499L8.52338 35.5989L7.62534 36.0389ZM7.34941 38.0152L7.0828 37.9344L7.66264 36.0207L7.92925 36.1015L7.34941 38.0152ZM6.46624 36.5549C6.46923 36.5485 6.47077 36.5416 6.47084 36.5347L8.47108 36.5525C8.46852 36.8456 8.40306 37.1347 8.2792 37.4002L6.46624 36.5549ZM6.47084 36.5347C6.4709 36.5278 6.46948 36.521 6.46671 36.5148L8.29396 35.7015C8.41326 35.9692 8.47365 36.2595 8.47108 36.5525L6.47084 36.5347ZM7.10813 35.146L7.35313 35.0768L7.89754 37.0011L7.65254 37.0703L7.10813 35.146ZM8.52338 35.5989C8.66615 35.8901 8.7425 36.2093 8.74695 36.5334L6.74681 36.5605C6.74642 36.5322 6.73975 36.5043 6.72729 36.4789L8.52338 35.5989ZM8.74695 36.5334C8.7514 36.8576 8.68384 37.1787 8.54924 37.4736L6.72942 36.6431C6.74129 36.6171 6.7472 36.5889 6.74681 36.5605L8.74695 36.5334Z" fill="white" mask="url(#path-5-inside-1_0_999)"/>
<path d="M50.5607 49.0978L50.5256 49.0399L49.7043 48.7951L49.6954 48.9192C49.6252 49.427 49.4748 49.9205 49.2497 50.381L49.2073 50.4908L50.0278 50.7261L50.0858 50.6911C50.3201 50.5088 50.4917 50.2579 50.5766 49.9736C50.6648 49.6874 50.6593 49.3805 50.5607 49.0978V49.0978ZM49.5712 50.3645C49.7606 49.9577 49.8944 49.5274 49.969 49.085L50.3193 49.1895C50.3831 49.4181 50.38 49.6602 50.3106 49.8872C50.2411 50.1141 50.1081 50.3165 49.9274 50.4704L49.5712 50.3645Z" fill="#4CD0C0"/>
<path d="M36.4407 46.8219C36.7582 46.5725 37.0018 46.2415 37.1456 45.8644C37.2894 45.4872 37.3278 45.0781 37.2569 44.6808" stroke="white" stroke-width="1.8" stroke-linecap="round" stroke-linejoin="round"/>
<defs>
<linearGradient id="paint0_linear_0_999" x1="48.3875" y1="49.866" x2="56.5974" y2="45.8224" gradientUnits="userSpaceOnUse">
<stop stop-color="#C01919"/>
<stop offset="0.289287" stop-color="#C82BB8"/>
<stop offset="0.476798" stop-color="#37A0CD"/>
<stop offset="0.711187" stop-color="#98FF74"/>
<stop offset="1" stop-color="#DA8E57"/>
</linearGradient>
<linearGradient id="paint1_linear_0_999" x1="42.0678" y1="47.6509" x2="17.3692" y2="38.2649" gradientUnits="userSpaceOnUse">
<stop stop-color="#925AED"/>
<stop offset="1" stop-color="#A473F4"/>
</linearGradient>
<linearGradient id="paint2_linear_0_999" x1="42.0678" y1="47.6509" x2="17.3692" y2="38.2649" gradientUnits="userSpaceOnUse">
<stop stop-color="#925AED"/>
<stop offset="1" stop-color="#A473F4"/>
</linearGradient>
<linearGradient id="paint3_linear_0_999" x1="42.0678" y1="47.6509" x2="17.3692" y2="38.2649" gradientUnits="userSpaceOnUse">
<stop stop-color="#925AED"/>
<stop offset="1" stop-color="#A473F4"/>
</linearGradient>
</defs>
</svg>
