<svg width="105" height="88" viewBox="0 0 105 88" fill="none" xmlns="http://www.w3.org/2000/svg">
<path fill-rule="evenodd" clip-rule="evenodd" d="M86.5757 28.2053L0.698025 34.9435L80.9716 39.1601L90.9824 53.4373L86.5757 28.2053Z" fill="#BEB58E"/>
<path d="M90.9824 53.4373L75.3677 50.1147L80.9716 39.1601L90.9824 53.4373Z" fill="#716B44"/>
<path d="M94.2024 12.8404L6.91477 33.9545L86.264 27.7282L94.2024 12.8404Z" fill="#EEECDB" stroke="#BEB58E"/>
<path d="M3.63146 35.5987L68.7093 62.0972L80.1764 39.6187L3.63146 35.5987Z" fill="#EEECDB" stroke="#BEB58E"/>
<path d="M77.6695 28.8213C73.4124 24.3915 68.9638 24.0501 62.2973 24.581C56.9349 25.0082 51.679 27.3351 49.6915 31.1046L77.6695 28.8213Z" fill="#FFD84E"/>
<path d="M79.987 39.0994C80.3742 36.9389 80.2659 35.8126 79.9047 33.5112C79.65 31.8891 78.2597 29.4355 77.6695 28.8213L49.6915 31.1046C49.3306 33.1181 49.6441 36.2742 50.4322 37.5516L79.987 39.0994Z" fill="#C5992A"/>
<path d="M74.2389 23.7755L78.9227 17.4542" stroke="#FFCD4E" stroke-linecap="round"/>
<path d="M80.4928 26.876L85.487 24.9268" stroke="#FFCD4E" stroke-linecap="round"/>
<path d="M44.7737 26.5985L49.7811 28.5138" stroke="#FFCD4E" stroke-linecap="round"/>
<path d="M55.413 22.8592L56.6172 24.6416" stroke="#FFCD4E" stroke-linecap="round"/>
<path d="M65.1839 20.9526L65.1648 23.17" stroke="#FFCD4E" stroke-linecap="round"/>
<path d="M63.2481 54.6096C62.5534 54.4501 62.3405 55.3772 63.0352 55.5367C63.7832 55.4644 63.9428 54.7691 63.2481 54.6096Z" fill="#E0CAEF"/>
<path d="M71.289 47.812C70.5943 47.6525 70.3283 48.8113 71.023 48.9708C71.7709 48.8985 71.9837 47.9715 71.289 47.812Z" fill="#E0CAEF"/>
<path d="M86.5048 21.2813C85.779 21.3672 86.2058 22.1296 86.9317 22.0437C87.5722 21.8053 87.2307 21.1954 86.5048 21.2813Z" fill="#E0CAEF"/>
<path d="M61.6013 46.8708C61.3697 46.8176 61.3697 46.8176 61.6013 46.8708C60.5154 47.3534 61.5137 48.3145 62.1364 47.7256C62.1364 47.7256 62.1896 47.4938 62.4212 47.5469C62.9907 47.1897 61.9393 46.4604 61.6013 46.8708Z" fill="#E0CAEF"/>
<path d="M79.2621 23.9218C79.0201 23.9504 79.0201 23.9504 79.2621 23.9218C78.5504 24.4938 80.0163 24.808 80.2441 24.2933C80.2441 24.2933 80.1587 24.1408 80.4006 24.1122C80.7138 23.7499 79.3333 23.5882 79.2621 23.9218Z" fill="#E0CAEF"/>
<path d="M53.0702 41.6713C52.8387 41.6182 52.8387 41.6182 53.0702 41.6713C51.9843 42.154 52.9826 43.115 53.6054 42.5261C53.6054 42.5261 53.6585 42.2943 53.8901 42.3475C54.4597 41.9903 53.4082 41.261 53.0702 41.6713Z" fill="#E0CAEF"/>
<path d="M68.849 20.6383C68.6071 20.667 68.6071 20.667 68.849 20.6383C68.1373 21.2103 69.6032 21.5246 69.831 21.0099C69.831 21.0099 69.7456 20.8574 69.9875 20.8287C70.3007 20.4665 68.9202 20.3047 68.849 20.6383Z" fill="#E0CAEF"/>
<path d="M36.9657 41.2158C36.7342 41.1626 36.7342 41.1626 36.9657 41.2158C35.8798 41.6984 36.8781 42.6595 37.5009 42.0705C37.5009 42.0705 37.554 41.8387 37.7856 41.8919C38.3552 41.5347 37.3037 40.8054 36.9657 41.2158Z" fill="#E0CAEF"/>
<path d="M71.4628 41.5708C71.2312 41.5176 71.2312 41.5176 71.4628 41.5708C70.3769 42.0534 71.3752 43.0145 71.998 42.4255C71.998 42.4255 72.0511 42.1937 72.2827 42.2469C72.8522 41.8897 71.8008 41.1604 71.4628 41.5708Z" fill="#E0CAEF"/>
<path d="M83.0571 17.5048C82.8152 17.5334 82.8152 17.5334 83.0571 17.5048C82.3454 18.0768 83.8113 18.391 84.0391 17.8763C84.0391 17.8763 83.9537 17.7238 84.1957 17.6952C84.5088 17.3329 83.1284 17.1712 83.0571 17.5048Z" fill="#E0CAEF"/>
<path d="M49.699 47.7278C49.0043 47.5683 48.7915 48.4953 49.4862 48.6548C50.1809 48.8143 50.3937 47.8873 49.699 47.7278Z" fill="#E0CAEF"/>
<path d="M24.6281 39.262C23.9334 39.1025 23.7206 40.0295 24.4153 40.189C25.11 40.3485 25.3228 39.4214 24.6281 39.262Z" fill="#E0CAEF"/>
<path d="M34.5505 29.5647C33.8246 29.6506 34.1661 30.2606 34.892 30.1747C35.6178 30.0887 35.2764 29.4788 34.5505 29.5647Z" fill="#E0CAEF"/>
</svg>
